<svg xmlns="http://www.w3.org/2000/svg" width="98" height="98" viewBox="0 0 98 98">
  <g id="Groupe_249" data-name="Groupe 249" transform="translate(842 -3785)">
    <g id="_5" data-name="5" transform="translate(-878 3785)">
      <g id="noun_Diploma_1194604" transform="translate(56.452 22.634)">
        <path id="Tracé_56" data-name="Tracé 56" d="M46.827,28.834C51.4,33.407,53.42,40.1,50.623,42.9l-7.642,7.642a.331.331,0,0,1-.553-.322c.685-2.776-.617-7.99-4.807-12.181-4.216-4.216-10.426-6.129-13.33-4.384a1.3,1.3,0,0,1-1.441-.268L12.973,23.5a.651.651,0,0,1,.46-1.111h6.98a.651.651,0,0,0,.651-.651v-6.98a.65.65,0,0,1,1.111-.46L32.831,24.965C35.628,22.168,42.254,24.26,46.827,28.834Z" transform="translate(-8.927 -9.071)" fill="#ca4b38"/>
        <path id="Tracé_57" data-name="Tracé 57" d="M28.413,70.21a.127.127,0,0,1-.125.031.124.124,0,0,1-.086-.1,10.511,10.511,0,0,0-8.764-8.095.182.182,0,0,1-.1-.31l2.317-2.317a.33.33,0,0,1,.4-.056A21.4,21.4,0,0,1,26.725,63.1l.008.007.006.007a1.329,1.329,0,0,0,1.863.014l8.08-8.08a.213.213,0,0,0,.041-.245,12.789,12.789,0,0,0-1.185-1.98.234.234,0,0,0-.171-.1.232.232,0,0,0-.184.068l-7.291,7.29a.329.329,0,0,1-.456.009c-3.14-2.886-7-5.082-11.214-5.1A.33.33,0,0,1,16,54.421l7.937-7.937a.108.108,0,0,0-.07-.184,10.918,10.918,0,0,0-3.964.466L8.771,57.9c-5.314,5.315,1.994,17.188,10.813,19.318,5.695,1.373,6.075-.5,18.488-12.91a7.945,7.945,0,0,0,.351-3.763.148.148,0,0,0-.253-.089Zm-14.658.557C9.933,66.945,8.51,61.91,10.648,59.773c2.235-2.235,5.5-2.593,8.557-1.659L14.1,63.222a1.328,1.328,0,0,0,1.748,1.99c1.18-.907,4.92-1.017,7.5,1.527a7.2,7.2,0,0,1,2.342,4.789C25.7,75.734,19.395,76.406,13.755,70.767Z" transform="translate(-6.972 -19.898)" fill="#ca4b38"/>
        <path id="Tracé_58" data-name="Tracé 58" d="M77.826,14.694l-2.414,2.414a.327.327,0,0,0-.022.437c2.379,3.006,3.125,7.052.482,9.751-.008.008-.013.018-.021.026L66.913,36.26a.093.093,0,0,1-.159-.061,13.038,13.038,0,0,0-.461-2.834.33.33,0,0,1,.083-.32l7.575-7.575v0c1.6-1.6.932-4.094-.407-5.956a.332.332,0,0,0-.5-.035l-8.658,8.658a.327.327,0,0,1-.509-.056q-.536-.834-1.152-1.626a.327.327,0,0,1,.025-.434L74.768,14a.339.339,0,0,0-.013-.487c-6.264-5.692-12.027-5.022-14.882-2.169L52.307,18.91a.327.327,0,0,1-.32.082,13.32,13.32,0,0,0-2.781-.475.112.112,0,0,1-.1-.071.11.11,0,0,1,.025-.117L58,9.467c5.549-5.55,13.935-2.606,19.859,3.321A1.324,1.324,0,0,1,77.826,14.694Z" transform="translate(-21.15 -6.516)" fill="#ca4b38"/>
      </g>
    </g>
    <g id="Ellipse_280" data-name="Ellipse 280" transform="translate(-842 3785)" fill="none" stroke="#00a5a5" stroke-width="4">
      <circle cx="49" cy="49" r="49" stroke="none"/>
      <circle cx="49" cy="49" r="47" fill="none"/>
    </g>
    <g id="Groupe_248" data-name="Groupe 248" transform="translate(-775 3861)">
      <circle id="Ellipse_213" data-name="Ellipse 213" cx="10" cy="10" r="10" fill="#00a5a5"/>
      <text id="_5-2" data-name="5" transform="translate(10 14)" fill="#fff" font-size="11" font-family="FiraSans-Regular, Fira Sans"><tspan x="-2.756" y="0">5</tspan></text>
    </g>
  </g>
</svg>
