<svg xmlns="http://www.w3.org/2000/svg" xmlns:xlink="http://www.w3.org/1999/xlink" width="276" height="276" viewBox="0 0 276 276">
  <defs>
    <clipPath id="clip-path">
      <circle id="Ellipse_103" data-name="Ellipse 103" cx="138" cy="138" r="138" transform="translate(5326 1314)" fill="#fff" stroke="#707070" stroke-width="1"/>
    </clipPath>
    <clipPath id="clip-path-2">
      <rect width="321" height="321" fill="none"/>
    </clipPath>
  </defs>
  <g id="Groupe_de_masques_2" data-name="Groupe de masques 2" transform="translate(-5326 -1314)" opacity="0.3" clip-path="url(#clip-path)">
    <g id="Grille_de_répétition_1" data-name="Grille de répétition 1" transform="translate(5303 1291)" clip-path="url(#clip-path-2)">
      <g transform="translate(-5303 -1291)">
        <circle id="Ellipse_3" data-name="Ellipse 3" cx="7" cy="7" r="7" transform="translate(5303 1291)" fill="#fff"/>
      </g>
      <g transform="translate(-5269 -1291)">
        <circle id="Ellipse_4" data-name="Ellipse 4" cx="7" cy="7" r="7" transform="translate(5303 1291)" fill="#fff"/>
      </g>
      <g transform="translate(-5235 -1291)">
        <circle id="Ellipse_5" data-name="Ellipse 5" cx="7" cy="7" r="7" transform="translate(5303 1291)" fill="#fff"/>
      </g>
      <g transform="translate(-5201 -1291)">
        <circle id="Ellipse_6" data-name="Ellipse 6" cx="7" cy="7" r="7" transform="translate(5303 1291)" fill="#fff"/>
      </g>
      <g transform="translate(-5167 -1291)">
        <circle id="Ellipse_7" data-name="Ellipse 7" cx="7" cy="7" r="7" transform="translate(5303 1291)" fill="#fff"/>
      </g>
      <g transform="translate(-5133 -1291)">
        <circle id="Ellipse_8" data-name="Ellipse 8" cx="7" cy="7" r="7" transform="translate(5303 1291)" fill="#fff"/>
      </g>
      <g transform="translate(-5099 -1291)">
        <circle id="Ellipse_9" data-name="Ellipse 9" cx="7" cy="7" r="7" transform="translate(5303 1291)" fill="#fff"/>
      </g>
      <g transform="translate(-5065 -1291)">
        <circle id="Ellipse_10" data-name="Ellipse 10" cx="7" cy="7" r="7" transform="translate(5303 1291)" fill="#fff"/>
      </g>
      <g transform="translate(-5031 -1291)">
        <circle id="Ellipse_11" data-name="Ellipse 11" cx="7" cy="7" r="7" transform="translate(5303 1291)" fill="#fff"/>
      </g>
      <g transform="translate(-4997 -1291)">
        <circle id="Ellipse_12" data-name="Ellipse 12" cx="7" cy="7" r="7" transform="translate(5303 1291)" fill="#fff"/>
      </g>
      <g transform="translate(-5303 -1257)">
        <circle id="Ellipse_13" data-name="Ellipse 13" cx="7" cy="7" r="7" transform="translate(5303 1291)" fill="#fff"/>
      </g>
      <g transform="translate(-5269 -1257)">
        <circle id="Ellipse_14" data-name="Ellipse 14" cx="7" cy="7" r="7" transform="translate(5303 1291)" fill="#fff"/>
      </g>
      <g transform="translate(-5235 -1257)">
        <circle id="Ellipse_15" data-name="Ellipse 15" cx="7" cy="7" r="7" transform="translate(5303 1291)" fill="#fff"/>
      </g>
      <g transform="translate(-5201 -1257)">
        <circle id="Ellipse_16" data-name="Ellipse 16" cx="7" cy="7" r="7" transform="translate(5303 1291)" fill="#fff"/>
      </g>
      <g transform="translate(-5167 -1257)">
        <circle id="Ellipse_17" data-name="Ellipse 17" cx="7" cy="7" r="7" transform="translate(5303 1291)" fill="#fff"/>
      </g>
      <g transform="translate(-5133 -1257)">
        <circle id="Ellipse_18" data-name="Ellipse 18" cx="7" cy="7" r="7" transform="translate(5303 1291)" fill="#fff"/>
      </g>
      <g transform="translate(-5099 -1257)">
        <circle id="Ellipse_19" data-name="Ellipse 19" cx="7" cy="7" r="7" transform="translate(5303 1291)" fill="#fff"/>
      </g>
      <g transform="translate(-5065 -1257)">
        <circle id="Ellipse_20" data-name="Ellipse 20" cx="7" cy="7" r="7" transform="translate(5303 1291)" fill="#fff"/>
      </g>
      <g transform="translate(-5031 -1257)">
        <circle id="Ellipse_21" data-name="Ellipse 21" cx="7" cy="7" r="7" transform="translate(5303 1291)" fill="#fff"/>
      </g>
      <g transform="translate(-4997 -1257)">
        <circle id="Ellipse_22" data-name="Ellipse 22" cx="7" cy="7" r="7" transform="translate(5303 1291)" fill="#fff"/>
      </g>
      <g transform="translate(-5303 -1223)">
        <circle id="Ellipse_23" data-name="Ellipse 23" cx="7" cy="7" r="7" transform="translate(5303 1291)" fill="#fff"/>
      </g>
      <g transform="translate(-5269 -1223)">
        <circle id="Ellipse_24" data-name="Ellipse 24" cx="7" cy="7" r="7" transform="translate(5303 1291)" fill="#fff"/>
      </g>
      <g transform="translate(-5235 -1223)">
        <circle id="Ellipse_25" data-name="Ellipse 25" cx="7" cy="7" r="7" transform="translate(5303 1291)" fill="#fff"/>
      </g>
      <g transform="translate(-5201 -1223)">
        <circle id="Ellipse_26" data-name="Ellipse 26" cx="7" cy="7" r="7" transform="translate(5303 1291)" fill="#fff"/>
      </g>
      <g transform="translate(-5167 -1223)">
        <circle id="Ellipse_27" data-name="Ellipse 27" cx="7" cy="7" r="7" transform="translate(5303 1291)" fill="#fff"/>
      </g>
      <g transform="translate(-5133 -1223)">
        <circle id="Ellipse_28" data-name="Ellipse 28" cx="7" cy="7" r="7" transform="translate(5303 1291)" fill="#fff"/>
      </g>
      <g transform="translate(-5099 -1223)">
        <circle id="Ellipse_29" data-name="Ellipse 29" cx="7" cy="7" r="7" transform="translate(5303 1291)" fill="#fff"/>
      </g>
      <g transform="translate(-5065 -1223)">
        <circle id="Ellipse_30" data-name="Ellipse 30" cx="7" cy="7" r="7" transform="translate(5303 1291)" fill="#fff"/>
      </g>
      <g transform="translate(-5031 -1223)">
        <circle id="Ellipse_31" data-name="Ellipse 31" cx="7" cy="7" r="7" transform="translate(5303 1291)" fill="#fff"/>
      </g>
      <g transform="translate(-4997 -1223)">
        <circle id="Ellipse_32" data-name="Ellipse 32" cx="7" cy="7" r="7" transform="translate(5303 1291)" fill="#fff"/>
      </g>
      <g transform="translate(-5303 -1189)">
        <circle id="Ellipse_33" data-name="Ellipse 33" cx="7" cy="7" r="7" transform="translate(5303 1291)" fill="#fff"/>
      </g>
      <g transform="translate(-5269 -1189)">
        <circle id="Ellipse_34" data-name="Ellipse 34" cx="7" cy="7" r="7" transform="translate(5303 1291)" fill="#fff"/>
      </g>
      <g transform="translate(-5235 -1189)">
        <circle id="Ellipse_35" data-name="Ellipse 35" cx="7" cy="7" r="7" transform="translate(5303 1291)" fill="#fff"/>
      </g>
      <g transform="translate(-5201 -1189)">
        <circle id="Ellipse_36" data-name="Ellipse 36" cx="7" cy="7" r="7" transform="translate(5303 1291)" fill="#fff"/>
      </g>
      <g transform="translate(-5167 -1189)">
        <circle id="Ellipse_37" data-name="Ellipse 37" cx="7" cy="7" r="7" transform="translate(5303 1291)" fill="#fff"/>
      </g>
      <g transform="translate(-5133 -1189)">
        <circle id="Ellipse_38" data-name="Ellipse 38" cx="7" cy="7" r="7" transform="translate(5303 1291)" fill="#fff"/>
      </g>
      <g transform="translate(-5099 -1189)">
        <circle id="Ellipse_39" data-name="Ellipse 39" cx="7" cy="7" r="7" transform="translate(5303 1291)" fill="#fff"/>
      </g>
      <g transform="translate(-5065 -1189)">
        <circle id="Ellipse_40" data-name="Ellipse 40" cx="7" cy="7" r="7" transform="translate(5303 1291)" fill="#fff"/>
      </g>
      <g transform="translate(-5031 -1189)">
        <circle id="Ellipse_41" data-name="Ellipse 41" cx="7" cy="7" r="7" transform="translate(5303 1291)" fill="#fff"/>
      </g>
      <g transform="translate(-4997 -1189)">
        <circle id="Ellipse_42" data-name="Ellipse 42" cx="7" cy="7" r="7" transform="translate(5303 1291)" fill="#fff"/>
      </g>
      <g transform="translate(-5303 -1155)">
        <circle id="Ellipse_43" data-name="Ellipse 43" cx="7" cy="7" r="7" transform="translate(5303 1291)" fill="#fff"/>
      </g>
      <g transform="translate(-5269 -1155)">
        <circle id="Ellipse_44" data-name="Ellipse 44" cx="7" cy="7" r="7" transform="translate(5303 1291)" fill="#fff"/>
      </g>
      <g transform="translate(-5235 -1155)">
        <circle id="Ellipse_45" data-name="Ellipse 45" cx="7" cy="7" r="7" transform="translate(5303 1291)" fill="#fff"/>
      </g>
      <g transform="translate(-5201 -1155)">
        <circle id="Ellipse_46" data-name="Ellipse 46" cx="7" cy="7" r="7" transform="translate(5303 1291)" fill="#fff"/>
      </g>
      <g transform="translate(-5167 -1155)">
        <circle id="Ellipse_47" data-name="Ellipse 47" cx="7" cy="7" r="7" transform="translate(5303 1291)" fill="#fff"/>
      </g>
      <g transform="translate(-5133 -1155)">
        <circle id="Ellipse_48" data-name="Ellipse 48" cx="7" cy="7" r="7" transform="translate(5303 1291)" fill="#fff"/>
      </g>
      <g transform="translate(-5099 -1155)">
        <circle id="Ellipse_49" data-name="Ellipse 49" cx="7" cy="7" r="7" transform="translate(5303 1291)" fill="#fff"/>
      </g>
      <g transform="translate(-5065 -1155)">
        <circle id="Ellipse_50" data-name="Ellipse 50" cx="7" cy="7" r="7" transform="translate(5303 1291)" fill="#fff"/>
      </g>
      <g transform="translate(-5031 -1155)">
        <circle id="Ellipse_51" data-name="Ellipse 51" cx="7" cy="7" r="7" transform="translate(5303 1291)" fill="#fff"/>
      </g>
      <g transform="translate(-4997 -1155)">
        <circle id="Ellipse_52" data-name="Ellipse 52" cx="7" cy="7" r="7" transform="translate(5303 1291)" fill="#fff"/>
      </g>
      <g transform="translate(-5303 -1121)">
        <circle id="Ellipse_53" data-name="Ellipse 53" cx="7" cy="7" r="7" transform="translate(5303 1291)" fill="#fff"/>
      </g>
      <g transform="translate(-5269 -1121)">
        <circle id="Ellipse_54" data-name="Ellipse 54" cx="7" cy="7" r="7" transform="translate(5303 1291)" fill="#fff"/>
      </g>
      <g transform="translate(-5235 -1121)">
        <circle id="Ellipse_55" data-name="Ellipse 55" cx="7" cy="7" r="7" transform="translate(5303 1291)" fill="#fff"/>
      </g>
      <g transform="translate(-5201 -1121)">
        <circle id="Ellipse_56" data-name="Ellipse 56" cx="7" cy="7" r="7" transform="translate(5303 1291)" fill="#fff"/>
      </g>
      <g transform="translate(-5167 -1121)">
        <circle id="Ellipse_57" data-name="Ellipse 57" cx="7" cy="7" r="7" transform="translate(5303 1291)" fill="#fff"/>
      </g>
      <g transform="translate(-5133 -1121)">
        <circle id="Ellipse_58" data-name="Ellipse 58" cx="7" cy="7" r="7" transform="translate(5303 1291)" fill="#fff"/>
      </g>
      <g transform="translate(-5099 -1121)">
        <circle id="Ellipse_59" data-name="Ellipse 59" cx="7" cy="7" r="7" transform="translate(5303 1291)" fill="#fff"/>
      </g>
      <g transform="translate(-5065 -1121)">
        <circle id="Ellipse_60" data-name="Ellipse 60" cx="7" cy="7" r="7" transform="translate(5303 1291)" fill="#fff"/>
      </g>
      <g transform="translate(-5031 -1121)">
        <circle id="Ellipse_61" data-name="Ellipse 61" cx="7" cy="7" r="7" transform="translate(5303 1291)" fill="#fff"/>
      </g>
      <g transform="translate(-4997 -1121)">
        <circle id="Ellipse_62" data-name="Ellipse 62" cx="7" cy="7" r="7" transform="translate(5303 1291)" fill="#fff"/>
      </g>
      <g transform="translate(-5303 -1087)">
        <circle id="Ellipse_63" data-name="Ellipse 63" cx="7" cy="7" r="7" transform="translate(5303 1291)" fill="#fff"/>
      </g>
      <g transform="translate(-5269 -1087)">
        <circle id="Ellipse_64" data-name="Ellipse 64" cx="7" cy="7" r="7" transform="translate(5303 1291)" fill="#fff"/>
      </g>
      <g transform="translate(-5235 -1087)">
        <circle id="Ellipse_65" data-name="Ellipse 65" cx="7" cy="7" r="7" transform="translate(5303 1291)" fill="#fff"/>
      </g>
      <g transform="translate(-5201 -1087)">
        <circle id="Ellipse_66" data-name="Ellipse 66" cx="7" cy="7" r="7" transform="translate(5303 1291)" fill="#fff"/>
      </g>
      <g transform="translate(-5167 -1087)">
        <circle id="Ellipse_67" data-name="Ellipse 67" cx="7" cy="7" r="7" transform="translate(5303 1291)" fill="#fff"/>
      </g>
      <g transform="translate(-5133 -1087)">
        <circle id="Ellipse_68" data-name="Ellipse 68" cx="7" cy="7" r="7" transform="translate(5303 1291)" fill="#fff"/>
      </g>
      <g transform="translate(-5099 -1087)">
        <circle id="Ellipse_69" data-name="Ellipse 69" cx="7" cy="7" r="7" transform="translate(5303 1291)" fill="#fff"/>
      </g>
      <g transform="translate(-5065 -1087)">
        <circle id="Ellipse_70" data-name="Ellipse 70" cx="7" cy="7" r="7" transform="translate(5303 1291)" fill="#fff"/>
      </g>
      <g transform="translate(-5031 -1087)">
        <circle id="Ellipse_71" data-name="Ellipse 71" cx="7" cy="7" r="7" transform="translate(5303 1291)" fill="#fff"/>
      </g>
      <g transform="translate(-4997 -1087)">
        <circle id="Ellipse_72" data-name="Ellipse 72" cx="7" cy="7" r="7" transform="translate(5303 1291)" fill="#fff"/>
      </g>
      <g transform="translate(-5303 -1053)">
        <circle id="Ellipse_73" data-name="Ellipse 73" cx="7" cy="7" r="7" transform="translate(5303 1291)" fill="#fff"/>
      </g>
      <g transform="translate(-5269 -1053)">
        <circle id="Ellipse_74" data-name="Ellipse 74" cx="7" cy="7" r="7" transform="translate(5303 1291)" fill="#fff"/>
      </g>
      <g transform="translate(-5235 -1053)">
        <circle id="Ellipse_75" data-name="Ellipse 75" cx="7" cy="7" r="7" transform="translate(5303 1291)" fill="#fff"/>
      </g>
      <g transform="translate(-5201 -1053)">
        <circle id="Ellipse_76" data-name="Ellipse 76" cx="7" cy="7" r="7" transform="translate(5303 1291)" fill="#fff"/>
      </g>
      <g transform="translate(-5167 -1053)">
        <circle id="Ellipse_77" data-name="Ellipse 77" cx="7" cy="7" r="7" transform="translate(5303 1291)" fill="#fff"/>
      </g>
      <g transform="translate(-5133 -1053)">
        <circle id="Ellipse_78" data-name="Ellipse 78" cx="7" cy="7" r="7" transform="translate(5303 1291)" fill="#fff"/>
      </g>
      <g transform="translate(-5099 -1053)">
        <circle id="Ellipse_79" data-name="Ellipse 79" cx="7" cy="7" r="7" transform="translate(5303 1291)" fill="#fff"/>
      </g>
      <g transform="translate(-5065 -1053)">
        <circle id="Ellipse_80" data-name="Ellipse 80" cx="7" cy="7" r="7" transform="translate(5303 1291)" fill="#fff"/>
      </g>
      <g transform="translate(-5031 -1053)">
        <circle id="Ellipse_81" data-name="Ellipse 81" cx="7" cy="7" r="7" transform="translate(5303 1291)" fill="#fff"/>
      </g>
      <g transform="translate(-4997 -1053)">
        <circle id="Ellipse_82" data-name="Ellipse 82" cx="7" cy="7" r="7" transform="translate(5303 1291)" fill="#fff"/>
      </g>
      <g transform="translate(-5303 -1019)">
        <circle id="Ellipse_83" data-name="Ellipse 83" cx="7" cy="7" r="7" transform="translate(5303 1291)" fill="#fff"/>
      </g>
      <g transform="translate(-5269 -1019)">
        <circle id="Ellipse_84" data-name="Ellipse 84" cx="7" cy="7" r="7" transform="translate(5303 1291)" fill="#fff"/>
      </g>
      <g transform="translate(-5235 -1019)">
        <circle id="Ellipse_85" data-name="Ellipse 85" cx="7" cy="7" r="7" transform="translate(5303 1291)" fill="#fff"/>
      </g>
      <g transform="translate(-5201 -1019)">
        <circle id="Ellipse_86" data-name="Ellipse 86" cx="7" cy="7" r="7" transform="translate(5303 1291)" fill="#fff"/>
      </g>
      <g transform="translate(-5167 -1019)">
        <circle id="Ellipse_87" data-name="Ellipse 87" cx="7" cy="7" r="7" transform="translate(5303 1291)" fill="#fff"/>
      </g>
      <g transform="translate(-5133 -1019)">
        <circle id="Ellipse_88" data-name="Ellipse 88" cx="7" cy="7" r="7" transform="translate(5303 1291)" fill="#fff"/>
      </g>
      <g transform="translate(-5099 -1019)">
        <circle id="Ellipse_89" data-name="Ellipse 89" cx="7" cy="7" r="7" transform="translate(5303 1291)" fill="#fff"/>
      </g>
      <g transform="translate(-5065 -1019)">
        <circle id="Ellipse_90" data-name="Ellipse 90" cx="7" cy="7" r="7" transform="translate(5303 1291)" fill="#fff"/>
      </g>
      <g transform="translate(-5031 -1019)">
        <circle id="Ellipse_91" data-name="Ellipse 91" cx="7" cy="7" r="7" transform="translate(5303 1291)" fill="#fff"/>
      </g>
      <g transform="translate(-4997 -1019)">
        <circle id="Ellipse_92" data-name="Ellipse 92" cx="7" cy="7" r="7" transform="translate(5303 1291)" fill="#fff"/>
      </g>
      <g transform="translate(-5303 -985)">
        <circle id="Ellipse_93" data-name="Ellipse 93" cx="7" cy="7" r="7" transform="translate(5303 1291)" fill="#fff"/>
      </g>
      <g transform="translate(-5269 -985)">
        <circle id="Ellipse_94" data-name="Ellipse 94" cx="7" cy="7" r="7" transform="translate(5303 1291)" fill="#fff"/>
      </g>
      <g transform="translate(-5235 -985)">
        <circle id="Ellipse_95" data-name="Ellipse 95" cx="7" cy="7" r="7" transform="translate(5303 1291)" fill="#fff"/>
      </g>
      <g transform="translate(-5201 -985)">
        <circle id="Ellipse_96" data-name="Ellipse 96" cx="7" cy="7" r="7" transform="translate(5303 1291)" fill="#fff"/>
      </g>
      <g transform="translate(-5167 -985)">
        <circle id="Ellipse_97" data-name="Ellipse 97" cx="7" cy="7" r="7" transform="translate(5303 1291)" fill="#fff"/>
      </g>
      <g transform="translate(-5133 -985)">
        <circle id="Ellipse_98" data-name="Ellipse 98" cx="7" cy="7" r="7" transform="translate(5303 1291)" fill="#fff"/>
      </g>
      <g transform="translate(-5099 -985)">
        <circle id="Ellipse_99" data-name="Ellipse 99" cx="7" cy="7" r="7" transform="translate(5303 1291)" fill="#fff"/>
      </g>
      <g transform="translate(-5065 -985)">
        <circle id="Ellipse_100" data-name="Ellipse 100" cx="7" cy="7" r="7" transform="translate(5303 1291)" fill="#fff"/>
      </g>
      <g transform="translate(-5031 -985)">
        <circle id="Ellipse_101" data-name="Ellipse 101" cx="7" cy="7" r="7" transform="translate(5303 1291)" fill="#fff"/>
      </g>
      <g transform="translate(-4997 -985)">
        <circle id="Ellipse_102" data-name="Ellipse 102" cx="7" cy="7" r="7" transform="translate(5303 1291)" fill="#fff"/>
      </g>
    </g>
  </g>
</svg>
