<svg id="Layer_2" data-name="Layer 2" xmlns="http://www.w3.org/2000/svg" width="34.216" height="40.324" viewBox="0 0 34.216 40.324">
  <path id="Tracé_81" data-name="Tracé 81" d="M163.805,129.4a12.417,12.417,0,0,0-5.183,23.692h10.372a12.417,12.417,0,0,0-5.189-23.692Zm5.869,5.331a.618.618,0,0,1,.772-.92,10.36,10.36,0,0,1,3.49,5.875.618.618,0,0,1-.47.7h-.117a.618.618,0,0,1-.618-.482,9.162,9.162,0,0,0-3.058-5.177Zm2.514,12.541a.618.618,0,0,1-.513-.933,9.063,9.063,0,0,0,1.093-2.885.618.618,0,0,1,1.174.229,10.224,10.224,0,0,1-1.236,3.268A.618.618,0,0,1,172.188,147.27Z" transform="translate(-146.697 -124.237)" fill="#fff"/>
  <path id="Tracé_82" data-name="Tracé 82" d="M212,362.849h10l-2.471,6.277a.618.618,0,0,1-.556.377h-3.954a.618.618,0,0,1-.556-.377Z" transform="translate(-199.893 -329.178)" fill="#fff"/>
  <rect id="Rectangle_85" data-name="Rectangle 85" width="10.379" height="2.422" transform="translate(11.919 30.051)" fill="#fff"/>
  <path id="Tracé_83" data-name="Tracé 83" d="M116.209,223.388h-2.6a.618.618,0,1,1,0-1.2h2.6a.618.618,0,0,1,0,1.2Z" transform="translate(-112.84 -205.68)" fill="#fff"/>
  <path id="Tracé_84" data-name="Tracé 84" d="M364.668,223.388h-2.6a.618.618,0,0,1,0-1.2h2.6a.618.618,0,1,1,0,1.2Z" transform="translate(-331.22 -205.68)" fill="#fff"/>
  <path id="Tracé_85" data-name="Tracé 85" d="M154.106,305.25a.618.618,0,0,1-.426-1.026l1.853-1.853a.618.618,0,0,1,.865.859l-1.853,1.853A.618.618,0,0,1,154.106,305.25Z" transform="translate(-148.556 -275.984)" fill="#fff"/>
  <path id="Tracé_86" data-name="Tracé 86" d="M328.188,131.3a.618.618,0,0,1-.451-1.019l1.853-1.853a.618.618,0,0,1,.846.846l-1.853,1.853A.618.618,0,0,1,328.188,131.3Z" transform="translate(-301.362 -123.306)" fill="#fff"/>
  <path id="Tracé_87" data-name="Tracé 87" d="M330.7,305.762a.618.618,0,0,1-.426-.173l-1.853-1.853a.618.618,0,0,1,.859-.815l1.853,1.853a.618.618,0,0,1-.426,1.026Z" transform="translate(-302.036 -276.496)" fill="#fff"/>
  <path id="Tracé_88" data-name="Tracé 88" d="M156.3,131.207a.618.618,0,0,1-.426-.173l-1.853-1.853a.618.618,0,0,1,.877-.834l1.853,1.853a.618.618,0,0,1-.426,1.026Z" transform="translate(-148.905 -123.218)" fill="#fff"/>
  <path id="Tracé_89" data-name="Tracé 89" d="M248.352,91.111a.618.618,0,0,1-.618-.618V87.911a.618.618,0,1,1,1.2,0v2.6A.618.618,0,0,1,248.352,91.111Z" transform="translate(-231.244 -87.143)" fill="#fff"/>
</svg>
