<svg xmlns="http://www.w3.org/2000/svg" width="200.384" height="18.384" viewBox="0 0 200.384 18.384"><g opacity=".5" fill="#bebebe"><path d="M60.383 9.193l-9.191 9.191-9.191-9.191 2.121-2.121 7.07 7.07 7.07-7.07z"/><path d="M18.383 9.193l-9.191 9.191-9.191-9.191 2.121-2.121 7.07 7.07 7.07-7.07z"/><path d="M116.383 9.193l-9.191 9.191-9.191-9.191 2.121-2.121 7.07 7.07 7.07-7.07z"/><path d="M88.383 9.193l-9.191 9.191-9.191-9.191 2.121-2.121 7.07 7.07 7.07-7.07z"/><path d="M46.383 9.193l-9.191 9.191-9.191-9.191 2.121-2.121 7.07 7.07 7.07-7.07z"/><path d="M144.383 9.193l-9.191 9.191-9.191-9.191 2.121-2.121 7.07 7.07 7.07-7.07z"/><path d="M186.383 9.193l-9.191 9.191-9.191-9.191 2.121-2.121 7.07 7.07 7.07-7.07z"/><path d="M74.383 9.193l-9.191 9.191-9.191-9.191 2.121-2.121 7.07 7.07 7.07-7.07z"/><path d="M32.383 9.193l-9.191 9.191-9.191-9.191 2.121-2.121 7.07 7.07 7.07-7.07z"/><path d="M130.383 9.193l-9.191 9.191-9.191-9.191 2.121-2.121 7.07 7.07 7.07-7.07z"/><path d="M172.383 9.193l-9.191 9.191-9.191-9.191 2.121-2.121 7.07 7.07 7.07-7.07z"/><path d="M102.383 9.193l-9.191 9.191-9.191-9.191 2.121-2.121 7.07 7.07 7.07-7.07z"/><path d="M158.383 9.193l-9.191 9.191-9.191-9.191 2.121-2.121 7.07 7.07 7.07-7.07z"/><path d="M200.383 9.193l-9.191 9.191-9.191-9.191 2.121-2.121 7.07 7.07 7.07-7.07z"/></g></svg>