<svg xmlns="http://www.w3.org/2000/svg" width="200.384" height="18.384" viewBox="0 0 200.384 18.384">
  <g id="Groupe_15" data-name="Groupe 15" transform="translate(-854.616 -809.308)" opacity="0.5">
    <path id="Union_7" data-name="Union 7" d="M0,13V0H13V3H3V13Z" transform="translate(905.808 827.692) rotate(-135)" fill="#bebebe"/>
    <path id="Union_18" data-name="Union 18" d="M0,13V0H13V3H3V13Z" transform="translate(863.808 827.692) rotate(-135)" fill="#bebebe"/>
    <path id="Union_11" data-name="Union 11" d="M0,13V0H13V3H3V13Z" transform="translate(961.808 827.692) rotate(-135)" fill="#bebebe"/>
    <path id="Union_9" data-name="Union 9" d="M0,13V0H13V3H3V13Z" transform="translate(933.808 827.692) rotate(-135)" fill="#bebebe"/>
    <path id="Union_20" data-name="Union 20" d="M0,13V0H13V3H3V13Z" transform="translate(891.808 827.692) rotate(-135)" fill="#bebebe"/>
    <path id="Union_13" data-name="Union 13" d="M0,13V0H13V3H3V13Z" transform="translate(989.808 827.692) rotate(-135)" fill="#bebebe"/>
    <path id="Union_16" data-name="Union 16" d="M0,13V0H13V3H3V13Z" transform="translate(1031.808 827.692) rotate(-135)" fill="#bebebe"/>
    <path id="Union_8" data-name="Union 8" d="M0,13V0H13V3H3V13Z" transform="translate(919.808 827.692) rotate(-135)" fill="#bebebe"/>
    <path id="Union_19" data-name="Union 19" d="M0,13V0H13V3H3V13Z" transform="translate(877.808 827.692) rotate(-135)" fill="#bebebe"/>
    <path id="Union_12" data-name="Union 12" d="M0,13V0H13V3H3V13Z" transform="translate(975.808 827.692) rotate(-135)" fill="#bebebe"/>
    <path id="Union_17" data-name="Union 17" d="M0,13V0H13V3H3V13Z" transform="translate(1017.808 827.692) rotate(-135)" fill="#bebebe"/>
    <path id="Union_10" data-name="Union 10" d="M0,13V0H13V3H3V13Z" transform="translate(947.808 827.692) rotate(-135)" fill="#bebebe"/>
    <path id="Union_14" data-name="Union 14" d="M0,13V0H13V3H3V13Z" transform="translate(1003.808 827.692) rotate(-135)" fill="#bebebe"/>
    <path id="Union_15" data-name="Union 15" d="M0,13V0H13V3H3V13Z" transform="translate(1045.808 827.692) rotate(-135)" fill="#bebebe"/>
  </g>
</svg>
