<?xml version="1.0" encoding="utf-8"?>
<!-- Generator: Adobe Illustrator 25.0.0, SVG Export Plug-In . SVG Version: 6.00 Build 0)  -->
<svg version="1.1" id="Calque_1" xmlns="http://www.w3.org/2000/svg" xmlns:xlink="http://www.w3.org/1999/xlink" x="0px" y="0px"
	 viewBox="0 0 841.89 595.28" style="enable-background:new 0 0 841.89 595.28;" xml:space="preserve">
<style type="text/css">
	.st0{fill:#FEC800;}
	.st1{fill:#00A5A5;}
	.st2{fill:#010202;}
	.st3{fill:#E94A34;}
	.st4{fill:#FFFFFF;}
</style>
<path class="st0" d="M247.85,336.48c41.68,0,75.47-33.79,75.47-75.47c0-41.68-33.79-75.47-75.47-75.47s-75.47,33.79-75.47,75.47
	C172.38,302.69,206.17,336.48,247.85,336.48"/>
<path class="st1" d="M157.13,214.1c-17.68,0-32.02,14.33-32.02,32.02v75.79c0,17.68,14.33,32.02,32.02,32.02h77.66
	c17.68,0,32.02-14.33,32.02-32.02v-75.79c0-17.68-14.33-32.02-32.02-32.02H157.13z"/>
<path class="st2" d="M603.32,329v-68.43h-21.37V329c0,4.25-3.46,7.71-7.7,7.71c-4.24,0-7.7-3.45-7.7-7.71v-41.3
	c0-16.03-13.04-29.07-29.07-29.07c-16.03,0-29.07,13.04-29.07,29.07V329c0,4.25-3.46,7.71-7.71,7.71c-4.24,0-7.7-3.45-7.7-7.71
	v-68.43h-21.36V329c0,16.03,13.03,29.07,29.06,29.07c16.03,0,29.07-13.04,29.07-29.07v-41.3c0-4.25,3.45-7.71,7.71-7.71
	c4.25,0,7.71,3.46,7.71,7.71V329c0,16.03,13.04,29.07,29.06,29.07C590.27,358.07,603.31,345.03,603.32,329"/>
<path class="st2" d="M455.74,328.92v-68.35h-21.36v68.35c0,4.24-3.46,7.7-7.71,7.7c-4.25,0-7.71-3.45-7.71-7.7v-41.31
	c0-16.02-13.03-29.06-29.06-29.06c-16.03,0-29.07,13.04-29.07,29.06v68.45h21.36v-68.45c0-4.24,3.46-7.7,7.71-7.7s7.7,3.45,7.7,7.7
	v41.31c0,16.02,13.05,29.06,29.07,29.06C442.7,357.98,455.74,344.94,455.74,328.92"/>
<path class="st2" d="M648.28,258.55h57.59v21.36h-57.59c-4.24,0-7.7,3.46-7.7,7.71c0,4.25,3.45,7.71,7.7,7.71h41.31
	c16.02,0,29.06,13.03,29.06,29.06c0,16.03-13.04,29.07-29.06,29.07h-68.45V332.1h68.45c4.24,0,7.7-3.46,7.7-7.71s-3.45-7.7-7.7-7.7
	h-41.31c-16.02,0-29.06-13.05-29.06-29.07C619.21,271.6,632.26,258.56,648.28,258.55"/>
<path class="st2" d="M707.74,396.15c0,0.82,0.63,1.48,1.48,1.48h8.25c0.73,0,1.32-0.56,1.32-1.35s-0.59-1.35-1.32-1.35h-6.73v-19.08
	c0-0.83-0.63-1.49-1.48-1.49c-0.89,0-1.52,0.66-1.52,1.49V396.15z M698.69,391.13c0,3.27-2.05,4.26-3.7,4.26
	c-1.68,0-3.7-0.99-3.7-4.26v-10.1c0-3.27,2.02-4.26,3.7-4.26c1.65,0,3.7,0.99,3.7,4.26V391.13z M694.99,398.1
	c2.21,0,6.7-0.99,6.7-6.96v-10.1c0-5.97-4.49-6.96-6.7-6.96c-2.21,0-6.7,0.99-6.7,6.96v10.1
	C688.29,397.11,692.78,398.1,694.99,398.1 M679.58,391.13c0,3.27-2.05,4.26-3.7,4.26c-1.69,0-3.7-0.99-3.7-4.26v-10.1
	c0-3.27,2.02-4.26,3.7-4.26c1.65,0,3.7,0.99,3.7,4.26V391.13z M675.88,398.1c2.21,0,6.7-0.99,6.7-6.96v-10.1
	c0-5.97-4.49-6.96-6.7-6.96c-2.21,0-6.7,0.99-6.7,6.96v10.1C669.18,397.11,673.67,398.1,675.88,398.1 M653.2,387.1h6.94v9.21
	c0,0.83,0.63,1.48,1.52,1.48c0.86,0,1.48-0.66,1.48-1.48v-20.46c0-0.83-0.63-1.49-1.48-1.49c-0.89,0-1.52,0.66-1.52,1.49v8.52h-6.94
	v-8.52c0-0.83-0.63-1.49-1.48-1.49c-0.89,0-1.52,0.66-1.52,1.49v20.46c0,0.83,0.63,1.48,1.52,1.48c0.86,0,1.48-0.66,1.48-1.48V387.1
	z M641.65,391.76c0,2.21-1.42,3.63-3.34,3.63c-1.68,0-3.3-1.16-3.3-4.26v-10.1c0-3.1,1.62-4.26,3.3-4.26c1.92,0,3.34,1.42,3.34,3.63
	c0,0.83,0.63,1.49,1.52,1.49c0.86,0,1.48-0.66,1.48-1.49c0-3.1-1.91-6.34-6.34-6.34c-2.21,0-6.3,0.99-6.3,6.96v10.1
	c0,5.97,4.09,6.96,6.3,6.96c4.42,0,6.34-3.23,6.34-6.33c0-0.83-0.63-1.49-1.48-1.49C642.28,390.28,641.65,390.94,641.65,391.76z
	 M626.43,380.4c0-3.1-2.08-6.34-6.5-6.34c-2.21,0-6.44,1.02-6.44,6.34c0,3.86,2.87,5.18,5.61,6.44v-0.03
	c2.28,1.09,4.52,2.08,4.52,4.66c0,2.8-2.02,3.93-3.7,3.93c-2.25,0-3.7-1.81-3.7-3.63c0-0.83-0.63-1.49-1.48-1.49
	c-0.89,0-1.52,0.66-1.52,1.49c0,2.91,2.11,6.33,6.7,6.33c2.21,0,6.7-0.99,6.7-6.63c0-4.39-3.16-5.84-6.04-7.2
	c-2.11-0.96-4.09-1.88-4.09-3.86c0-2.51,1.75-3.63,3.43-3.63c1.95,0,3.5,1.42,3.5,3.63c0,0.83,0.63,1.49,1.52,1.49
	C625.8,381.89,626.43,381.23,626.43,380.4z M587.15,384.37v-7.13h2.54c2.28,0,4.1,0.79,4.1,3.53c0,2.77-1.82,3.6-4.1,3.6H587.15z
	 M587.15,394.93v-7.83h3.01c2.84,0,4.13,1.52,4.13,3.9c0,2.38-1.29,3.93-4.13,3.93H587.15z M584.18,396.15
	c0,0.82,0.63,1.48,1.48,1.48h4.49c3.53,0,7.13-1.15,7.13-6.63c0-2.81-1.15-4.72-2.77-5.41c1.35-0.82,2.27-2.54,2.27-4.82
	c0-5.15-3.86-6.24-7.1-6.24h-4.03c-0.86,0-1.48,0.66-1.48,1.48V396.15z M567.11,396.15c0,0.82,0.63,1.48,1.48,1.48h8.55
	c0.73,0,1.32-0.56,1.32-1.35s-0.59-1.35-1.32-1.35h-7.03v-7.83h5.78c0.73,0,1.32-0.56,1.32-1.38c0-0.79-0.59-1.35-1.32-1.35h-5.78
	v-7.13h7.03c0.73,0,1.32-0.56,1.32-1.35s-0.59-1.35-1.32-1.35h-8.55c-0.86,0-1.48,0.66-1.48,1.48V396.15z M539.91,391.13
	c0,6.14,3.79,6.96,6.01,6.96c1.45,0,3.57-0.59,4.49-2.37c0.92,1.78,3.04,2.37,4.49,2.37c2.21,0,6.01-0.82,6.01-6.96v-15.28
	c0-0.83-0.63-1.49-1.48-1.49c-0.89,0-1.52,0.66-1.52,1.49v15.28c0,3.27-1.59,4.26-3,4.26c-1.29,0-3.01-0.99-3.01-4.26v-15.12
	c0-0.83-0.63-1.48-1.48-1.48c-0.86,0-1.48,0.66-1.48,1.48v15.12c0,3.27-1.72,4.26-3.01,4.26c-1.42,0-3.01-0.99-3.01-4.26v-15.28
	c0-0.83-0.63-1.49-1.48-1.49c-0.89,0-1.52,0.66-1.52,1.49V391.13z M512.12,396.15c0,0.82,0.63,1.48,1.48,1.48h8.55
	c0.73,0,1.32-0.56,1.32-1.35s-0.59-1.35-1.32-1.35h-7.03v-7.83h5.78c0.73,0,1.32-0.56,1.32-1.38c0-0.79-0.6-1.35-1.32-1.35h-5.78
	v-7.13h7.03c0.73,0,1.32-0.56,1.32-1.35s-0.59-1.35-1.32-1.35h-8.55c-0.86,0-1.48,0.66-1.48,1.48V396.15z M502.42,396.31
	c0,0.83,0.63,1.48,1.52,1.48c0.82,0,1.45-0.66,1.45-1.48v-20.46c0-0.83-0.63-1.49-1.48-1.49c-0.86,0-1.48,0.66-1.48,1.49V396.31z
	 M486.24,377.23h3.6c1.65,0,3.17,1.02,3.17,4.26v9.18c0,3.24-1.52,4.26-3.17,4.26h-3.6V377.23z M483.24,396.15
	c0,0.82,0.63,1.48,1.48,1.48h5.12c2.21,0,6.17-0.86,6.17-6.96v-9.18c0-6.11-3.96-6.96-6.17-6.96h-5.12c-0.86,0-1.48,0.66-1.48,1.48
	V396.15z M463.89,396.31c0,0.83,0.63,1.48,1.48,1.48c0.89,0,1.52-0.66,1.52-1.48v-15.28c0-3.27,1.88-4.26,3.57-4.26
	s3.57,0.99,3.57,4.26v15.28c0,0.83,0.63,1.48,1.48,1.48c0.89,0,1.52-0.66,1.52-1.48v-15.28c0-6.14-4.35-6.96-6.57-6.96
	c-2.21,0-6.57,0.83-6.57,6.96V396.31z M447.98,384.37v-3.34c0-3.27,1.75-4.26,3.43-4.26c1.65,0,3.44,0.99,3.44,4.26v3.34H447.98z
	 M457.85,381.03c0-6.14-4.22-6.96-6.44-6.96c-2.21,0-6.43,0.83-6.43,6.96v15.28c0,0.83,0.63,1.48,1.52,1.48
	c0.86,0,1.48-0.66,1.48-1.48v-9.21h6.87v9.21c0,0.83,0.63,1.48,1.52,1.48c0.86,0,1.48-0.66,1.48-1.48V381.03z M417.94,396.31
	c0,0.83,0.63,1.48,1.52,1.48c0.86,0,1.48-0.66,1.48-1.48v-15.28c0-3.27,1.59-4.26,3.01-4.26c1.29,0,3.01,0.99,3.01,4.26v15.12
	c0,0.83,0.63,1.49,1.48,1.49c0.86,0,1.48-0.66,1.48-1.49v-15.12c0-3.27,1.72-4.26,3.01-4.26c1.45,0,3.01,0.99,3.01,4.26v15.28
	c0,0.83,0.63,1.48,1.52,1.48c0.86,0,1.48-0.66,1.48-1.48v-15.28c0-6.14-3.79-6.96-6.01-6.96c-1.45,0-3.57,0.59-4.49,2.37
	c-0.92-1.78-3.04-2.37-4.49-2.37c-2.21,0-6.01,0.83-6.01,6.96V396.31z M402.29,385.06v-7.83h2.67c2.84,0,4.1,1.55,4.1,3.93
	c0,2.38-1.26,3.9-4.1,3.9H402.29z M399.29,396.31c0,0.83,0.63,1.48,1.52,1.48c0.86,0,1.48-0.66,1.48-1.48v-8.52h2.18
	c2.25,0,4.23,0.89,4.26,3.6l0.07,4.92c0,0.83,0.63,1.48,1.52,1.48c0.86,0,1.48-0.66,1.48-1.48l-0.07-4.92
	c-0.03-2.15-1.09-3.9-2.34-4.82c1.55-0.86,2.67-2.54,2.67-5.41c0-5.48-3.56-6.63-7.1-6.63h-4.16c-0.89,0-1.52,0.66-1.52,1.48V396.31
	z M390.25,391.13c0,3.27-2.05,4.26-3.7,4.26c-1.68,0-3.7-0.99-3.7-4.26v-10.1c0-3.27,2.02-4.26,3.7-4.26c1.65,0,3.7,0.99,3.7,4.26
	V391.13z M386.55,398.1c2.21,0,6.7-0.99,6.7-6.96v-10.1c0-5.97-4.49-6.96-6.7-6.96c-2.21,0-6.7,0.99-6.7,6.96v10.1
	C379.85,397.11,384.33,398.1,386.55,398.1 M360.83,396.31c0,0.83,0.63,1.48,1.48,1.48c0.89,0,1.52-0.66,1.52-1.48v-15.28
	c0-3.27,1.88-4.26,3.57-4.26c1.69,0,3.57,0.99,3.57,4.26v15.28c0,0.83,0.63,1.48,1.48,1.48c0.89,0,1.52-0.66,1.52-1.48v-15.28
	c0-6.14-4.35-6.96-6.57-6.96c-2.21,0-6.57,0.83-6.57,6.96V396.31z"/>
<path class="st3" d="M263.05,242.84h-77.66c-17.68,0-32.02,14.33-32.02,32.02v75.79c0,17.68,14.33,32.02,32.02,32.02l37.82,0
	l27.34,26.49c0.84,0.81,1.95,1.24,3.07,1.24c0.58,0,1.17-0.11,1.72-0.35c1.63-0.69,2.69-2.29,2.69-4.07v-23.32l5.01,0
	c17.68,0,32.02-14.33,32.02-32.02v-75.79C295.07,257.18,280.73,242.84,263.05,242.84z"/>
<path class="st4" d="M250.2,327.55c-2.01,0-3.63-1.63-3.63-3.63v-22.32c0-7.55-6.15-13.7-13.7-13.7c-1.24,0-13.66,0-13.66,0v36.03
	c0,2-1.63,3.63-3.63,3.63c-2.01,0-3.63-1.63-3.63-3.63v-22.32c0-7.55-6.15-13.7-13.7-13.7c-7.56,0-13.71,6.15-13.71,13.7v35.12
	h10.07v-35.12c0-2,1.63-3.63,3.63-3.63s3.63,1.63,3.63,3.63v22.32c0,7.55,6.15,13.7,13.71,13.7c7.55,0,13.7-6.15,13.71-13.7v-22.88
	c0.27-1.74,1.78-3.07,3.59-3.07c2,0,3.63,1.63,3.63,3.63v22.32c0,7.55,6.15,13.7,13.71,13.7c7.55,0,13.7-6.15,13.71-13.7v-35.94
	h-10.07l-0.01,35.94C253.83,325.92,252.2,327.55,250.2,327.55"/>
</svg>
