<?xml version="1.0" encoding="utf-8"?>
<!-- Generator: Adobe Illustrator 25.2.1, SVG Export Plug-In . SVG Version: 6.00 Build 0)  -->
<svg version="1.1" id="Calque_1" xmlns="http://www.w3.org/2000/svg" xmlns:xlink="http://www.w3.org/1999/xlink" x="0px" y="0px"
	 viewBox="0 0 1520 749.8" style="enable-background:new 0 0 1520 749.8;" xml:space="preserve">
<style type="text/css">
	.st0{opacity:0.28;}
	.st1{fill:#FFFFFF;}
	.st2{fill:none;stroke:#CA4B38;stroke-width:9;}
	.st3{fill:none;stroke:#CA4B38;stroke-width:10;stroke-linecap:round;stroke-dasharray:0,30;}
	.st4{fill:none;stroke:#00A5A5;stroke-width:7;}
	.st5{fill:#CA4B38;}
	.st6{font-family:'FiraSans-Bold';}
	.st7{font-size:26px;}
	.st8{font-size:15.166px;}
	.st9{font-size:24px;}
	.st10{font-family:'FiraSans-Regular';}
	.st11{font-size:15px;}
	.st12{font-size:13.999px;}
	.st13{fill:#00A5A5;}
	.st14{font-family:'FiraSans-Medium';}
	.st15{fill:#FEC800;}
</style>
<g class="st0">
	<circle class="st1" cx="10" cy="431.8" r="10"/>
	<circle class="st2" cx="10" cy="431.8" r="5.5"/>
	<circle class="st1" cx="521" cy="508.8" r="30"/>
	<circle class="st2" cx="521" cy="508.8" r="25.5"/>
	<ellipse class="st1" cx="749.5" cy="293.8" rx="34.5" ry="34"/>
	<ellipse class="st2" cx="749.5" cy="293.8" rx="30" ry="29.5"/>
	<circle class="st1" cx="1054" cy="407.8" r="42"/>
	<circle class="st2" cx="1054" cy="407.8" r="37.5"/>
	<ellipse class="st1" cx="185" cy="376.3" rx="18" ry="17.5"/>
	<ellipse class="st2" cx="185" cy="376.3" rx="13.5" ry="13"/>
	<ellipse class="st1" cx="1120" cy="95.3" rx="53" ry="52.5"/>
	<ellipse class="st2" cx="1120" cy="95.3" rx="48.5" ry="48"/>
	<circle class="st1" cx="1450.5" cy="147.3" r="69.5"/>
	<circle class="st2" cx="1450.5" cy="147.3" r="65"/>
</g>
<path class="st3" d="M150,456.5c407.5,0,1042.2-148.9,1220-448.6"/>
<g>
	<circle class="st1" cx="265" cy="453.8" r="74"/>
	<circle class="st4" cx="265" cy="453.8" r="70.5"/>
</g>
<text transform="matrix(1 0 0 1 245.783 445.845)" class="st5 st6 st7">1</text>
<text transform="matrix(1 0 0 1 257.8467 437.1792)" class="st5 st6 st8">ère</text>
<text transform="matrix(1 0 0 1 226.522 476.845)" class="st5 st6 st7">année</text>
<g>
	<circle class="st1" cx="623" cy="406.8" r="74"/>
	<circle class="st4" cx="623" cy="406.8" r="70.5"/>
</g>
<text transform="matrix(1 0 0 1 606.354 398.845)" class="st5 st6 st7">2</text>
<text transform="matrix(1 0 0 1 619.796 390.1792)" class="st5 st6 st8">éme</text>
<text transform="matrix(1 0 0 1 585.522 429.845)" class="st5 st6 st7">année</text>
<g>
	<circle class="st1" cx="949" cy="311.8" r="74"/>
	<circle class="st4" cx="949" cy="311.8" r="70.5"/>
</g>
<text transform="matrix(1 0 0 1 926.4609 303.845)" class="st5 st6 st7">3</text>
<text transform="matrix(1 0 0 1 939.9807 295.1792)" class="st5 st6 st8">ème</text>
<text transform="matrix(1 0 0 1 911.522 334.845)" class="st5 st6 st7">année</text>
<path class="st5" d="M1370.8,10.8l-3.2,37.3l-30.8-21.6L1370.8,10.8z"/>
<g>
	<circle class="st1" cx="1259" cy="145.8" r="74"/>
	<circle class="st4" cx="1259" cy="145.8" r="70.5"/>
</g>
<text transform="matrix(1 0 0 1 1226.678 139.845)" class="st5 st6 st9">4</text>
<text transform="matrix(1 0 0 1 1240.2377 139.845)" class="st5 st10 st11">&amp;</text>
<text transform="matrix(1 0 0 1 1251.1725 139.845)" class="st5 st6 st9">5</text>
<text transform="matrix(1 0 0 1 1264.0364 131.8458)" class="st5 st6 st12">ème</text>
<text transform="matrix(1 0 0 1 1219.532 167.845)" class="st5 st6 st9">années</text>
<path class="st13" d="M150,559.8h230v52H150V559.8z"/>
<text transform="matrix(1 0 0 1 174.205 581.845)" class="st1 st14 st11">Cursus initial : Concepteur </text>
<text transform="matrix(1 0 0 1 227.815 599.845)" class="st1 st14 st11">numérique</text>
<path class="st13" d="M834,420.8h230v52H834V420.8z"/>
<text transform="matrix(1 0 0 1 865.135 442.845)" class="st1 st14 st11">Bachelor : Chef de Projet</text>
<text transform="matrix(1 0 0 1 926.9131 460.845)" class="st1 st14 st11">Digital</text>
<path class="st13" d="M1140,259.8h230v52h-230V259.8z"/>
<text transform="matrix(1 0 0 1 1193.463 281.845)" class="st1 st14 st11">Master : Expert du</text>
<text transform="matrix(1 0 0 1 1217.8149 299.845)" class="st1 st14 st11">numérique</text>
<path class="st5" d="M508,514.8h230v36H508V514.8z"/>
<text transform="matrix(1 0 0 1 539.768 536.845)" class="st1 st14 st11">Spécialisation Marketing</text>
<path class="st13" d="M508,556.8h230v36H508V556.8z"/>
<text transform="matrix(1 0 0 1 550.988 578.845)" class="st1 st14 st11">Spécialisation Design</text>
<path class="st15" d="M508,598.8h230v36H508V598.8z"/>
<text transform="matrix(1 0 0 1 519.975 620.845)" class="st1 st14 st11">Spécialisation Développement</text>
</svg>
