<?xml version="1.0" encoding="utf-8"?>
<!-- Generator: Adobe Illustrator 25.2.1, SVG Export Plug-In . SVG Version: 6.00 Build 0)  -->
<svg version="1.1" id="Calque_1" xmlns:v="https://vecta.io/nano"
	 xmlns="http://www.w3.org/2000/svg" xmlns:xlink="http://www.w3.org/1999/xlink" x="0px" y="0px" viewBox="0 0 335 987"
	 style="enable-background:new 0 0 335 987;" xml:space="preserve">
<style type="text/css">
	.st0{clip-path:url(#SVGID_2_);}
	.st1{fill:#CA4B38;}
	.st2{clip-path:url(#SVGID_4_);}
	.st3{clip-path:url(#SVGID_6_);}
	.st4{fill:#00A5A5;}
	.st5{fill:#FFFFFF;}
	.st6{fill:none;stroke:#00A5A5;stroke-width:7;}
	.st7{font-family:'FiraSans-Medium';}
	.st8{font-size:13px;}
	.st9{font-family:'FiraSans-Bold';}
	.st10{font-size:24px;}
	.st11{font-size:13.999px;}
	.st12{fill:#FEC800;}
	.st13{font-family:'FiraSans-Regular';}
	.st14{font-size:15px;}
</style>
<g>
	<defs>
		<rect id="SVGID_1_" x="56.8" y="155" width="223.5" height="104.6"/>
	</defs>
	<clipPath id="SVGID_2_">
		<use xlink:href="#SVGID_1_"  style="overflow:visible;"/>
	</clipPath>
	<g transform="translate(56.847 154.957)" class="st0">
		<g>
			<path id="B" class="st1" d="M204.4,79.3L204.4,79.3c-1.4-1.8-1.3-4.4,0.4-5.9c1.5-1.4,3.9-1.4,5.4,0.2c0.1,0.1,0.2,0.2,0.2,0.3
				c1.4,1.8,1.3,4.4-0.4,5.9c-0.7,0.7-1.6,1-2.6,1C206.3,80.7,205.2,80.2,204.4,79.3 M194.4,70.6c-1.9-1.2-2.6-3.7-1.6-5.7
				c0.9-1.9,3.2-2.7,5.1-1.8c0.1,0,0.2,0.1,0.3,0.1c1.9,1.2,2.6,3.7,1.6,5.7c-0.6,1.3-2,2.2-3.5,2.2C195.6,71.1,195,71,194.4,70.6
				 M182.2,66.3c-2.2-0.4-3.7-2.5-3.4-4.8c0.2-2.2,2.2-3.8,4.4-3.6c0,0,0.1,0,0.1,0c2.2,0.4,3.7,2.5,3.4,4.8c-0.2,2-1.9,3.6-3.9,3.6
				C182.6,66.3,182.4,66.3,182.2,66.3 M164.5,61.7c0.1-2.2,2-3.8,4.2-3.7c2.2,0.1,3.8,2,3.7,4.2c-0.1,2.1-1.9,3.7-3.9,3.7
				C166.2,65.8,164.4,63.9,164.5,61.7 M150.1,61.7c0.1-2.2,2-3.8,4.2-3.7c2.2,0.1,3.8,2,3.7,4.2c-0.1,2.1-1.9,3.7-3.9,3.7
				C151.8,65.8,150,63.9,150.1,61.7 M135.7,61.7c0.1-2.2,2-3.8,4.2-3.7c2.2,0.1,3.8,2,3.7,4.2c-0.1,2.1-1.9,3.7-3.9,3.7
				C137.4,65.8,135.7,63.9,135.7,61.7 M121.4,61.7c0.1-2.2,2-3.8,4.2-3.7c2.2,0.1,3.8,2,3.7,4.2c-0.1,2.1-1.9,3.7-3.9,3.7
				C123.1,65.8,121.3,63.9,121.4,61.7 M107,61.7c0.1-2.2,2-3.8,4.2-3.7c2.2,0.1,3.8,2,3.7,4.2c-0.1,2.1-1.9,3.7-3.9,3.7
				C108.7,65.8,106.9,63.9,107,61.7 M92.6,61.7c0.1-2.2,2-3.8,4.2-3.7c2.2,0.1,3.8,2,3.7,4.2c-0.1,2.1-1.9,3.7-3.9,3.7
				C94.3,65.8,92.6,63.9,92.6,61.7 M78.3,61.7c0.1-2.2,2-3.8,4.2-3.7c2.2,0.1,3.8,2,3.7,4.2c-0.1,2.1-1.9,3.7-4,3.7
				C80,65.8,78.2,63.9,78.3,61.7 M63.9,61.7c0.1-2.2,2-3.8,4.2-3.7s3.8,2,3.7,4.2c-0.1,2.1-1.9,3.7-4,3.7
				C65.6,65.8,63.8,63.9,63.9,61.7 M49.6,61.7c0.1-2.2,2-3.8,4.2-3.7c2.2,0.1,3.8,2,3.7,4.2c-0.1,2.1-1.9,3.7-3.9,3.7
				C51.3,65.8,49.5,63.9,49.6,61.7 M38.7,65.5c-2.2-0.4-3.8-2.5-3.4-4.7c0.2-2.2,2.1-3.9,4.3-3.7c0,0,0,0,0.1,0
				c2.2,0.4,3.8,2.5,3.4,4.7c-0.2,2-1.9,3.6-3.9,3.7C39,65.6,38.8,65.6,38.7,65.5 M23.7,60.5c-2-1.2-2.7-3.7-1.7-5.7
				c0.9-1.9,3.2-2.8,5.1-1.9c0.1,0,0.2,0.1,0.3,0.1c2,1.2,2.7,3.7,1.7,5.7c-0.6,1.4-2,2.2-3.5,2.3C24.9,61,24.3,60.8,23.7,60.5
				 M11.3,50.3c-1.5-1.8-1.3-4.3,0.3-5.9c1.5-1.5,3.9-1.4,5.3,0c0.1,0.1,0.2,0.2,0.2,0.3c1.5,1.8,1.3,4.3-0.3,6
				C15.4,52,13,52,11.6,50.5C11.5,50.4,11.4,50.4,11.3,50.3 M3.1,36c-0.8-2.1,0.2-4.5,2.2-5.5c2-0.8,4.2,0.2,5,2.1
				c0,0.1,0.1,0.2,0.1,0.2c0.8,2.1-0.2,4.5-2.2,5.5c-0.5,0.2-0.9,0.3-1.4,0.3C5.1,38.7,3.6,37.6,3.1,36 M0,19.6L0,19.6
				c-0.1-2.3,1.6-4.2,3.9-4.3c2.3,0,4.1,1.9,4,4.1C8,21.7,6.3,23.6,4,23.8H4C1.7,23.7,0,21.8,0,19.6 M0,4.2C-0.1,2,1.7,0.1,4,0
				c2.3,0.1,4,2,3.9,4.2C8,6.5,6.2,8.4,4,8.4C1.7,8.4-0.1,6.5,0,4.2"/>
		</g>
		<path class="st1" d="M203.5,88.4l13.8,16.2l6.2-20.8L203.5,88.4z"/>
	</g>
</g>
<g>
	<defs>
		<rect id="SVGID_3_" x="56.8" y="703" width="223.5" height="104.6"/>
	</defs>
	<clipPath id="SVGID_4_">
		<use xlink:href="#SVGID_3_"  style="overflow:visible;"/>
	</clipPath>
	<g transform="translate(56.847 702.957)" class="st2">
		<g>
			<path id="B_1_" class="st1" d="M204.4,79.3L204.4,79.3c-1.4-1.8-1.3-4.4,0.4-5.9c1.5-1.4,3.9-1.4,5.4,0.2
				c0.1,0.1,0.2,0.2,0.2,0.3c1.4,1.8,1.3,4.4-0.4,5.9c-0.7,0.7-1.6,1-2.6,1C206.3,80.7,205.2,80.2,204.4,79.3 M194.4,70.6
				c-1.9-1.2-2.6-3.7-1.6-5.7c0.9-1.9,3.2-2.7,5.1-1.8c0.1,0,0.2,0.1,0.3,0.1c1.9,1.2,2.6,3.7,1.6,5.7c-0.6,1.3-2,2.2-3.5,2.2
				C195.6,71.1,195,71,194.4,70.6 M182.2,66.3c-2.2-0.4-3.7-2.5-3.4-4.8c0.2-2.2,2.2-3.8,4.4-3.6c0,0,0.1,0,0.1,0
				c2.2,0.4,3.7,2.5,3.4,4.8c-0.2,2-1.9,3.6-3.9,3.6C182.6,66.3,182.4,66.3,182.2,66.3 M164.5,61.7c0.1-2.2,2-3.8,4.2-3.7
				c2.2,0.1,3.8,2,3.7,4.2c-0.1,2.1-1.9,3.7-3.9,3.7C166.2,65.8,164.4,63.9,164.5,61.7 M150.1,61.7c0.1-2.2,2-3.8,4.2-3.7
				c2.2,0.1,3.8,2,3.7,4.2c-0.1,2.1-1.9,3.7-3.9,3.7C151.8,65.8,150,63.9,150.1,61.7 M135.7,61.7c0.1-2.2,2-3.8,4.2-3.7
				c2.2,0.1,3.8,2,3.7,4.2c-0.1,2.1-1.9,3.7-3.9,3.7C137.4,65.8,135.7,63.9,135.7,61.7 M121.4,61.7c0.1-2.2,2-3.8,4.2-3.7
				c2.2,0.1,3.8,2,3.7,4.2c-0.1,2.1-1.9,3.7-3.9,3.7C123.1,65.8,121.3,63.9,121.4,61.7 M107,61.7c0.1-2.2,2-3.8,4.2-3.7
				c2.2,0.1,3.8,2,3.7,4.2c-0.1,2.1-1.9,3.7-3.9,3.7C108.7,65.8,106.9,63.9,107,61.7 M92.6,61.7c0.1-2.2,2-3.8,4.2-3.7
				c2.2,0.1,3.8,2,3.7,4.2c-0.1,2.1-1.9,3.7-3.9,3.7C94.3,65.8,92.6,63.9,92.6,61.7 M78.3,61.7c0.1-2.2,2-3.8,4.2-3.7
				c2.2,0.1,3.8,2,3.7,4.2c-0.1,2.1-1.9,3.7-4,3.7C80,65.8,78.2,63.9,78.3,61.7 M63.9,61.7c0.1-2.2,2-3.8,4.2-3.7s3.8,2,3.7,4.2
				c-0.1,2.1-1.9,3.7-4,3.7C65.6,65.8,63.8,63.9,63.9,61.7 M49.6,61.7c0.1-2.2,2-3.8,4.2-3.7c2.2,0.1,3.8,2,3.7,4.2
				c-0.1,2.1-1.9,3.7-3.9,3.7C51.3,65.8,49.5,63.9,49.6,61.7 M38.7,65.5c-2.2-0.4-3.8-2.5-3.4-4.7c0.2-2.2,2.1-3.9,4.3-3.7
				c0,0,0,0,0.1,0c2.2,0.4,3.8,2.5,3.4,4.7c-0.2,2-1.9,3.6-3.9,3.7C39,65.6,38.8,65.6,38.7,65.5 M23.7,60.5c-2-1.2-2.7-3.7-1.7-5.7
				c0.9-1.9,3.2-2.8,5.1-1.9c0.1,0,0.2,0.1,0.3,0.1c2,1.2,2.7,3.7,1.7,5.7c-0.6,1.4-2,2.2-3.5,2.3C24.9,61,24.3,60.8,23.7,60.5
				 M11.3,50.3c-1.5-1.8-1.3-4.3,0.3-5.9c1.5-1.5,3.9-1.4,5.3,0c0.1,0.1,0.2,0.2,0.2,0.3c1.5,1.8,1.3,4.3-0.3,6
				C15.4,52,13,52,11.6,50.5C11.5,50.4,11.4,50.4,11.3,50.3 M3.1,36c-0.8-2.1,0.2-4.5,2.2-5.5c2-0.8,4.2,0.2,5,2.1
				c0,0.1,0.1,0.2,0.1,0.2c0.8,2.1-0.2,4.5-2.2,5.5c-0.5,0.2-0.9,0.3-1.4,0.3C5.1,38.7,3.6,37.6,3.1,36 M0,19.6L0,19.6
				c-0.1-2.3,1.6-4.2,3.9-4.3c2.3,0,4.1,1.9,4,4.1C8,21.7,6.3,23.6,4,23.8H4C1.7,23.7,0,21.8,0,19.6 M0,4.2C-0.1,2,1.7,0.1,4,0
				c2.3,0.1,4,2,3.9,4.2C8,6.5,6.2,8.4,4,8.4C1.7,8.4-0.1,6.5,0,4.2"/>
		</g>
		<path class="st1" d="M203.5,88.4l13.8,16.2l6.2-20.8L203.5,88.4z"/>
	</g>
</g>
<g>
	<defs>
		<rect id="SVGID_5_" x="56.8" y="433" width="223.5" height="104.6"/>
	</defs>
	<clipPath id="SVGID_6_">
		<use xlink:href="#SVGID_5_"  style="overflow:visible;"/>
	</clipPath>
	<g transform="translate(56.847 432.957)" class="st3">
		<path class="st1" d="M19,79.3L19,79.3c1.4-1.8,1.3-4.4-0.4-5.9c-0.8-0.7-1.8-1.1-2.9-1s-2,0.6-2.7,1.4c-1.4,1.8-1.3,4.4,0.4,5.9
			c0.7,0.7,1.6,1,2.6,1C17.2,80.7,18.3,80.2,19,79.3 M29.1,70.6c1.9-1.2,2.6-3.7,1.6-5.7c-0.9-1.9-3.2-2.7-5.1-1.8
			c-0.1,0-0.2,0.1-0.3,0.1c-1.9,1.2-2.6,3.7-1.6,5.7c0.6,1.3,2,2.2,3.5,2.2C27.8,71.1,28.5,71,29.1,70.6 M41.3,66.3
			c2.2-0.4,3.7-2.5,3.4-4.8c-0.2-2.2-2.2-3.8-4.4-3.6c0,0-0.1,0-0.1,0c-2.2,0.4-3.7,2.5-3.4,4.8c0.2,2,1.9,3.6,3.9,3.6
			C40.9,66.3,41.1,66.3,41.3,66.3 M59,61.7c-0.1-2.1-2-3.8-4.1-3.7c-2.2,0.1-3.8,1.9-3.8,4c0,2.2,1.8,3.9,4,3.9
			C57.3,65.8,59.1,63.9,59,61.7 M73.4,61.7c-0.1-2.1-2-3.8-4.1-3.7c-2.2,0.1-3.8,1.9-3.8,4c0,2.2,1.8,3.9,4,3.9
			C71.7,65.8,73.5,63.9,73.4,61.7 M87.8,61.7c-0.1-2.1-2-3.8-4.1-3.7c-2.2,0.1-3.8,1.9-3.8,4c0,2.2,1.8,3.9,4,3.9
			C86.1,65.8,87.8,63.9,87.8,61.7 M102.1,61.7c-0.1-2.1-2-3.8-4.1-3.7c-2.2,0.1-3.8,1.9-3.8,4c0,2.2,1.8,3.9,4,3.9
			C100.4,65.8,102.2,63.9,102.1,61.7 M116.5,61.7c-0.1-2.1-2-3.8-4.1-3.7c-2.2,0.1-3.8,1.9-3.8,4c0,2.2,1.8,3.9,4,3.9
			C114.8,65.8,116.6,63.9,116.5,61.7 M130.8,61.7c-0.1-2.1-2-3.8-4.1-3.7c-2.1,0.1-3.8,1.9-3.8,4c0,2.2,1.8,3.9,3.9,3.9
			C129.1,65.8,130.9,63.9,130.8,61.7 M145.2,61.7c-0.1-2.2-2-3.8-4.1-3.7c-2.2,0.1-3.8,1.9-3.8,4c0,2.2,1.8,3.9,4,3.9
			C143.5,65.8,145.3,63.9,145.2,61.7 M159.6,61.7c-0.1-2.1-2-3.8-4.1-3.7s-3.8,1.9-3.8,4c0,2.2,1.8,3.9,4,3.9
			C157.9,65.8,159.6,63.9,159.6,61.7 M173.9,61.7c-0.1-2.1-2-3.8-4.1-3.7c-2.1,0.1-3.8,1.9-3.8,4c0,2.2,1.8,3.9,3.9,3.9
			C172.2,65.8,174,63.9,173.9,61.7 M184.8,65.5c2.2-0.4,3.8-2.5,3.4-4.7c-0.2-2.2-2.1-3.8-4.3-3.7c0,0-0.1,0-0.1,0
			c-2.2,0.4-3.8,2.5-3.4,4.7c0.2,2,1.9,3.6,3.9,3.7C184.5,65.6,184.7,65.6,184.8,65.5 M199.8,60.5c2-1.2,2.7-3.7,1.7-5.7
			c-0.4-1-1.3-1.7-2.3-2.1c-1-0.3-2.1-0.2-3.1,0.3c-2,1.2-2.7,3.7-1.7,5.7c0.6,1.4,2,2.2,3.5,2.3C198.6,61,199.2,60.9,199.8,60.5
			 M212.2,50.3c1.5-1.8,1.3-4.3-0.3-5.9c-0.8-0.7-1.8-1.1-2.9-1.1c-1.1,0.1-2,0.6-2.7,1.4c-1.5,1.8-1.3,4.3,0.3,6
			c0.8,0.7,1.8,1.1,2.9,1.1C210.5,51.6,211.5,51.1,212.2,50.3 M220.4,36c0.8-2.1-0.2-4.5-2.2-5.5c-1-0.4-2.1-0.4-3.1,0.1
			c-1,0.4-1.7,1.3-2,2.3c-0.8,2.1,0.2,4.5,2.2,5.5c0.5,0.2,0.9,0.3,1.4,0.3C218.4,38.7,219.9,37.6,220.4,36 M223.5,19.6L223.5,19.6
			c0.2-2.2-1.4-4.1-3.6-4.3c-2.2-0.2-4.1,1.4-4.3,3.6c0,0.2,0,0.4,0,0.5c-0.1,2.3,1.6,4.2,3.9,4.3h0.1
			C221.8,23.7,223.5,21.8,223.5,19.6 M223.5,4.2c0.1-1.5-0.6-2.9-1.9-3.6c-1.3-0.8-2.8-0.8-4.1,0c-1.3,0.8-2,2.2-1.9,3.6
			c-0.2,2.2,1.5,4.1,3.7,4.2c2.2,0.2,4.1-1.5,4.2-3.7C223.5,4.6,223.5,4.4,223.5,4.2 M20,88.4L6.2,104.6L0,83.8L20,88.4z"/>
	</g>
</g>
<path class="st4" d="M103,37h210l-14.2,54H103V37z"/>
<g>
	<circle class="st5" cx="64.5" cy="63.5" r="63.5"/>
	<circle class="st6" cx="64.5" cy="63.5" r="60"/>
</g>
<text transform="matrix(1 0 0 1 134 61)" class="st5 st7 st8">Cursus initial : Concepteur </text>
<text transform="matrix(1 0 0 1 134 76)" class="st5 st7 st8">numérique</text>
<text transform="matrix(1 0 0 1 48.108 56)" class="st1 st9 st10">1</text>
<text transform="matrix(1 0 0 1 59.2438 48.0009)" class="st1 st9 st11">ère</text>
<text transform="matrix(1 0 0 1 30.328 84)" class="st1 st9 st10">année</text>
<path class="st1" d="M230.3,304H3l15.4,27.6h211.9L230.3,304z"/>
<path class="st4" d="M230.3,331H3l15.4,27.6h211.9L230.3,331z"/>
<path class="st12" d="M230.3,358H3l15.4,27.6h211.9L230.3,358z"/>
<g>
	<circle class="st5" cx="271.5" cy="344.5" r="63.5"/>
	<circle class="st6" cx="271.5" cy="344.5" r="60"/>
</g>
<text transform="matrix(1 0 0 1 21 321)" class="st5 st7 st8">Spécialisation Marketing</text>
<text transform="matrix(1 0 0 1 21 349)" class="st5 st7 st8">Spécialisation Design</text>
<text transform="matrix(1 0 0 1 21 377)" class="st5 st7 st8">Spécialisation Développement</text>
<text transform="matrix(1 0 0 1 257.557 337)" class="st1 st9 st10">2</text>
<text transform="matrix(1 0 0 1 269.965 329.0008)" class="st1 st9 st11">éme</text>
<text transform="matrix(1 0 0 1 238.328 365)" class="st1 st9 st10">année</text>
<path class="st4" d="M103,597h210l-14.2,54H103V597z"/>
<g>
	<circle class="st5" cx="64.5" cy="623.5" r="63.5"/>
	<circle class="st6" cx="64.5" cy="623.5" r="60"/>
</g>
<text transform="matrix(1 0 0 1 134 621)" class="st5 st7 st8">Bachelor : Chef de Projet</text>
<text transform="matrix(1 0 0 1 134 636)" class="st5 st7 st8">Digital</text>
<text transform="matrix(1 0 0 1 44.118 617)" class="st1 st9 st10">3</text>
<text transform="matrix(1 0 0 1 56.5977 609.0008)" class="st1 st9 st11">ème</text>
<text transform="matrix(1 0 0 1 30.328 645)" class="st1 st9 st10">année</text>
<path class="st4" d="M233,859H23l14.2,54H233V859z"/>
<text transform="matrix(1 0 0 1 51 883)" class="st5 st7 st8">Mastère : Expert du</text>
<text transform="matrix(1 0 0 1 51 898)" class="st5 st7 st8">numérique</text>
<g>
	<circle class="st5" cx="271.5" cy="882.5" r="63.5"/>
	<circle class="st6" cx="271.5" cy="882.5" r="60"/>
</g>
<text transform="matrix(1 0 0 1 241.678 877)" class="st1 st9 st10">4</text>
<text transform="matrix(1 0 0 1 255.2377 877)" class="st1 st13 st14">&amp;</text>
<text transform="matrix(1 0 0 1 266.1725 877)" class="st1 st9 st10">5</text>
<text transform="matrix(1 0 0 1 279.0364 869.0008)" class="st1 st9 st11">ème</text>
<text transform="matrix(1 0 0 1 234.532 905)" class="st1 st9 st10">années</text>
</svg>
