<svg xmlns="http://www.w3.org/2000/svg" width="335" height="987" viewBox="0 0 335 987"><defs><clipPath id="a"><path fill="none" d="M0 0h223.493v104.586h-223.493z"/></clipPath></defs><g><g><g clip-path="url(#a)" fill="#ca4b38"><path d="M204.448 79.255a4.411 4.411 0 0 1 .4-5.946 3.786 3.786 0 0 1 5.574.421 4.412 4.412 0 0 1-.4 5.946 3.766 3.766 0 0 1-2.585 1.034 3.858 3.858 0 0 1-2.988-1.456m-10.027-8.634a4.363 4.363 0 0 1-1.573-5.723 3.831 3.831 0 0 1 5.365-1.67 4.361 4.361 0 0 1 1.566 5.716 3.894 3.894 0 0 1-3.469 2.191 3.717 3.717 0 0 1-1.889-.513m-12.216-4.337a4.179 4.179 0 0 1-3.354-4.766 4 4 0 0 1 4.467-3.578 4.175 4.175 0 0 1 3.354 4.766 4.04 4.04 0 0 1-3.908 3.616 3.44 3.44 0 0 1-.559-.038m-17.739-4.6a3.958 3.958 0 1 1 3.95 4.214 4.091 4.091 0 0 1-3.95-4.214m-14.364 0a3.958 3.958 0 1 1 3.95 4.214 4.091 4.091 0 0 1-3.95-4.214m-14.364 0a3.958 3.958 0 1 1 3.95 4.214 4.091 4.091 0 0 1-3.95-4.214m-14.364 0a3.958 3.958 0 1 1 3.95 4.214 4.091 4.091 0 0 1-3.95-4.214m-14.364 0a3.958 3.958 0 1 1 3.95 4.214 4.091 4.091 0 0 1-3.95-4.214m-14.364 0a3.958 3.958 0 1 1 3.953 4.209 4.092 4.092 0 0 1-3.957-4.214m-14.364 0a3.962 3.962 0 1 1 3.95 4.214 4.091 4.091 0 0 1-3.95-4.214m-14.357 0a3.955 3.955 0 1 1 3.943 4.214 4.085 4.085 0 0 1-3.943-4.214m-14.371 0a3.958 3.958 0 1 1 3.957 4.214 4.092 4.092 0 0 1-3.957-4.214m-10.876 3.854a4.168 4.168 0 0 1-3.433-4.7 4.012 4.012 0 0 1 4.4-3.662 4.164 4.164 0 0 1 3.433 4.7 4.043 4.043 0 0 1-3.914 3.693 3.552 3.552 0 0 1-.488-.031m-14.982-5a4.362 4.362 0 0 1-1.666-5.693 3.837 3.837 0 0 1 5.336-1.778 4.362 4.362 0 0 1 1.666 5.693 3.942 3.942 0 0 1-3.5 2.26 3.812 3.812 0 0 1-1.831-.483m-12.384-10.27a4.407 4.407 0 0 1 .3-5.946 3.773 3.773 0 0 1 5.573.314 4.416 4.416 0 0 1-.294 5.953 3.776 3.776 0 0 1-5.58-.322m-8.251-14.227a4.3 4.3 0 0 1 2.226-5.463 3.864 3.864 0 0 1 5.121 2.375 4.3 4.3 0 0 1-2.227 5.463 3.711 3.711 0 0 1-1.444.291 3.958 3.958 0 0 1-3.676-2.666m-3.053-16.419a4.1 4.1 0 0 1 3.878-4.291 4.08 4.08 0 0 1 4.022 4.137 4.1 4.1 0 0 1-3.878 4.291h-.072a4.079 4.079 0 0 1-3.95-4.137m-.007-15.401a4.086 4.086 0 0 1 3.95-4.214 4.086 4.086 0 0 1 3.95 4.214 4.086 4.086 0 0 1-3.95 4.214 4.086 4.086 0 0 1-3.95-4.214" transform="translate(56.847 154.957)"/><path d="M260.324 243.374l13.776 16.168 6.24-20.811z"/></g><g clip-path="url(#a)" fill="#ca4b38"><path d="M204.448 79.255a4.411 4.411 0 0 1 .4-5.946 3.786 3.786 0 0 1 5.574.421 4.412 4.412 0 0 1-.4 5.946 3.766 3.766 0 0 1-2.585 1.034 3.858 3.858 0 0 1-2.988-1.456m-10.027-8.634a4.363 4.363 0 0 1-1.573-5.723 3.831 3.831 0 0 1 5.365-1.67 4.361 4.361 0 0 1 1.566 5.716 3.894 3.894 0 0 1-3.469 2.191 3.717 3.717 0 0 1-1.889-.513m-12.216-4.337a4.179 4.179 0 0 1-3.354-4.766 4 4 0 0 1 4.467-3.578 4.175 4.175 0 0 1 3.354 4.766 4.04 4.04 0 0 1-3.908 3.616 3.44 3.44 0 0 1-.559-.038m-17.739-4.6a3.958 3.958 0 1 1 3.95 4.214 4.091 4.091 0 0 1-3.95-4.214m-14.364 0a3.958 3.958 0 1 1 3.95 4.214 4.091 4.091 0 0 1-3.95-4.214m-14.364 0a3.958 3.958 0 1 1 3.95 4.214 4.091 4.091 0 0 1-3.95-4.214m-14.364 0a3.958 3.958 0 1 1 3.95 4.214 4.091 4.091 0 0 1-3.95-4.214m-14.364 0a3.958 3.958 0 1 1 3.95 4.214 4.091 4.091 0 0 1-3.95-4.214m-14.364 0a3.958 3.958 0 1 1 3.953 4.209 4.092 4.092 0 0 1-3.957-4.214m-14.364 0a3.962 3.962 0 1 1 3.95 4.214 4.091 4.091 0 0 1-3.95-4.214m-14.357 0a3.955 3.955 0 1 1 3.943 4.214 4.085 4.085 0 0 1-3.943-4.214m-14.371 0a3.958 3.958 0 1 1 3.957 4.214 4.092 4.092 0 0 1-3.957-4.214m-10.876 3.854a4.168 4.168 0 0 1-3.433-4.7 4.012 4.012 0 0 1 4.4-3.662 4.164 4.164 0 0 1 3.433 4.7 4.043 4.043 0 0 1-3.914 3.693 3.552 3.552 0 0 1-.488-.031m-14.982-5a4.362 4.362 0 0 1-1.666-5.693 3.837 3.837 0 0 1 5.336-1.778 4.362 4.362 0 0 1 1.666 5.693 3.942 3.942 0 0 1-3.5 2.26 3.812 3.812 0 0 1-1.831-.483m-12.384-10.27a4.407 4.407 0 0 1 .3-5.946 3.773 3.773 0 0 1 5.573.314 4.416 4.416 0 0 1-.294 5.953 3.776 3.776 0 0 1-5.58-.322m-8.251-14.227a4.3 4.3 0 0 1 2.226-5.463 3.864 3.864 0 0 1 5.121 2.375 4.3 4.3 0 0 1-2.227 5.463 3.711 3.711 0 0 1-1.444.291 3.958 3.958 0 0 1-3.676-2.666m-3.053-16.419a4.1 4.1 0 0 1 3.878-4.291 4.08 4.08 0 0 1 4.022 4.137 4.1 4.1 0 0 1-3.878 4.291h-.072a4.079 4.079 0 0 1-3.95-4.137m-.007-15.401a4.086 4.086 0 0 1 3.95-4.214 4.086 4.086 0 0 1 3.95 4.214 4.086 4.086 0 0 1-3.95 4.214 4.086 4.086 0 0 1-3.95-4.214" transform="translate(56.847 702.957)"/><path d="M260.324 791.374l13.776 16.168 6.24-20.811z"/></g><g clip-path="url(#a)" fill="#ca4b38"><path d="M6.939 79.255a4.411 4.411 0 0 0-.4-5.946 3.786 3.786 0 0 0-5.574.421 4.412 4.412 0 0 0 .4 5.946 3.766 3.766 0 0 0 2.585 1.034 3.858 3.858 0 0 0 2.988-1.456m10.027-8.634a4.363 4.363 0 0 0 1.573-5.72 3.831 3.831 0 0 0-5.365-1.67 4.361 4.361 0 0 0-1.566 5.716 3.894 3.894 0 0 0 3.469 2.191 3.718 3.718 0 0 0 1.889-.513m12.216-4.337a4.179 4.179 0 0 0 3.354-4.766 4 4 0 0 0-4.467-3.578 4.175 4.175 0 0 0-3.354 4.766 4.04 4.04 0 0 0 3.908 3.616 3.44 3.44 0 0 0 .559-.038m17.739-4.6a3.958 3.958 0 1 0-3.95 4.214 4.091 4.091 0 0 0 3.95-4.214m14.364 0a3.958 3.958 0 1 0-3.95 4.214 4.091 4.091 0 0 0 3.95-4.214m14.364 0a3.958 3.958 0 1 0-3.95 4.214 4.091 4.091 0 0 0 3.95-4.214m14.364 0a3.958 3.958 0 1 0-3.95 4.214 4.091 4.091 0 0 0 3.95-4.214m14.364 0a3.958 3.958 0 1 0-3.95 4.214 4.091 4.091 0 0 0 3.95-4.214m14.364 0a3.958 3.958 0 1 0-3.957 4.214 4.092 4.092 0 0 0 3.957-4.214m14.364 0a3.962 3.962 0 1 0-3.95 4.214 4.091 4.091 0 0 0 3.95-4.214m14.357 0a3.955 3.955 0 1 0-3.943 4.214 4.085 4.085 0 0 0 3.943-4.214m14.371 0a3.958 3.958 0 1 0-3.957 4.214 4.092 4.092 0 0 0 3.957-4.214m10.881 3.854a4.168 4.168 0 0 0 3.433-4.7 4.012 4.012 0 0 0-4.4-3.662 4.164 4.164 0 0 0-3.433 4.7 4.043 4.043 0 0 0 3.914 3.693 3.552 3.552 0 0 0 .488-.031m14.982-5a4.362 4.362 0 0 0 1.666-5.693 3.837 3.837 0 0 0-5.336-1.778 4.362 4.362 0 0 0-1.666 5.693 3.942 3.942 0 0 0 3.5 2.26 3.812 3.812 0 0 0 1.831-.483m12.382-10.275a4.407 4.407 0 0 0-.3-5.946 3.773 3.773 0 0 0-5.573.314 4.416 4.416 0 0 0 .294 5.953 3.776 3.776 0 0 0 5.58-.322m8.252-14.228a4.3 4.3 0 0 0-2.226-5.463 3.864 3.864 0 0 0-5.121 2.375 4.3 4.3 0 0 0 2.226 5.463 3.711 3.711 0 0 0 1.444.291 3.958 3.958 0 0 0 3.677-2.666m3.052-16.42a3.959 3.959 0 1 0-7.9-.153 4.1 4.1 0 0 0 3.878 4.291h.072a4.079 4.079 0 0 0 3.95-4.137m.007-15.4a3.958 3.958 0 1 0-7.9 0 3.958 3.958 0 1 0 7.9 0" transform="translate(68.952 432.957)"/><path d="M76.862 521.374l-13.776 16.169-6.24-20.811z"/></g></g><g><g><path d="M103 37h210l-14.247 54h-195.753z" fill="#00a5a5"/><g transform="translate(1 0)" fill="#fff" stroke="#00a5a5" stroke-width="7"><circle cx="63.5" cy="63.5" r="63.5" stroke="none"/><circle cx="63.5" cy="63.5" r="60" fill="none"/></g><text transform="translate(134 61)" fill="#fff" font-size="13" font-family="FiraSans-Medium, Fira Sans" font-weight="500"><tspan x="0" y="0">Cursus initial : Concepteur</tspan><tspan x="0" y="15">numérique</tspan></text><text transform="translate(64 56)" fill="#ca4b38" font-size="24" font-family="FiraSans-Bold, Fira Sans" font-weight="700"><tspan x="-15.892" y="0">1</tspan><tspan y="0" font-size="13.999" baseline-shift="7.999">ère</tspan><tspan x="-33.672" y="28">année</tspan></text><text transform="translate(128 102)" fill="#717171" font-size="13" font-family="FiraSans-Regular, Fira Sans"><tspan x="0" y="12">Suivez cette première année pour</tspan><tspan x="0" y="27">vous former au métier de</tspan><tspan x="0" y="42">concepteur numérique. Cette</tspan><tspan x="0" y="57">année est la clé pour poursuivre le</tspan><tspan x="0" y="72">cursus et obtenir un Bachelor chef</tspan><tspan x="0" y="87">de projet digital.</tspan></text></g><g><g><path d="M230.316 304h-227.316l15.421 27.554h211.9z" fill="#ca4b38"/><path d="M230.316 331h-227.316l15.421 27.554h211.9z" fill="#00a5a5"/><path d="M230.316 358h-227.316l15.421 27.554h211.9z" fill="#fec800"/></g><g transform="translate(208 281)" fill="#fff" stroke="#00a5a5" stroke-width="7"><circle cx="63.5" cy="63.5" r="63.5" stroke="none"/><circle cx="63.5" cy="63.5" r="60" fill="none"/></g><text transform="translate(21 321)" fill="#fff" font-size="13" font-family="FiraSans-Medium, Fira Sans" font-weight="500"><tspan x="0" y="0">Spécialisation Marketing</tspan></text><text transform="translate(21 349)" fill="#fff" font-size="13" font-family="FiraSans-Medium, Fira Sans" font-weight="500"><tspan x="0" y="0">Spécialisation Design</tspan></text><text transform="translate(21 377)" fill="#fff" font-size="13" font-family="FiraSans-Medium, Fira Sans" font-weight="500"><tspan x="0" y="0">Spécialisation Développement</tspan></text><text transform="translate(272 337)" fill="#ca4b38" font-size="24" font-family="FiraSans-Bold, Fira Sans" font-weight="700"><tspan x="-19.846" y="0">2</tspan><tspan y="0" font-size="13.999" baseline-shift="7.999">ème</tspan><tspan x="-33.672" y="28">année</tspan></text><text transform="translate(0 400)" fill="#717171" font-size="12" font-family="FiraSans-Regular, Fira Sans"><tspan x="11.772" y="11">Choisissez un de ces trois domaines</tspan><tspan x="9.324" y="25">et spécialisez vous pour suivre votre</tspan><tspan x="78.204" y="39">univers de prédilection.</tspan></text></g><g><path d="M103 597h210l-14.247 54h-195.753z" fill="#00a5a5"/><g transform="translate(1 560)" fill="#fff" stroke="#00a5a5" stroke-width="7"><circle cx="63.5" cy="63.5" r="63.5" stroke="none"/><circle cx="63.5" cy="63.5" r="60" fill="none"/></g><text transform="translate(134 621)" fill="#fff" font-size="13" font-family="FiraSans-Medium, Fira Sans" font-weight="500"><tspan x="0" y="0">Bachelor : Chef de Projet</tspan><tspan x="0" y="15">Digital</tspan></text><text transform="translate(64 617)" fill="#ca4b38" font-size="24" font-family="FiraSans-Bold, Fira Sans" font-weight="700"><tspan x="-19.882" y="0">3</tspan><tspan y="0" font-size="13.999" baseline-shift="7.999">ème</tspan><tspan x="-33.672" y="28">année</tspan></text><text transform="translate(128 666)" fill="#717171" font-size="13" font-family="FiraSans-Regular, Fira Sans"><tspan x="0" y="12">Obtenez le mental et l&apos;attitude</tspan><tspan x="0" y="27">d&apos;un chef de projet et validez votre</tspan><tspan x="0" y="42">Bachelor.</tspan></text></g><g><path d="M233 859h-210l14.247 54h195.753z" fill="#00a5a5"/><text transform="translate(51 883)" fill="#fff" font-size="13" font-family="FiraSans-Medium, Fira Sans" font-weight="500"><tspan x="0" y="0">Master : Expert du</tspan><tspan x="0" y="15">numérique</tspan></text><g transform="translate(208 819)" fill="#fff" stroke="#00a5a5" stroke-width="7"><circle cx="63.5" cy="63.5" r="63.5" stroke="none"/><circle cx="63.5" cy="63.5" r="60" fill="none"/></g><text transform="translate(274 877)" fill="#ca4b38" font-size="24" font-family="FiraSans-Bold, Fira Sans" font-weight="700"><tspan x="-32.322" y="0">4</tspan><tspan y="0" font-size="15" font-family="FiraSans-Regular, Fira Sans" font-weight="400">&amp;</tspan><tspan y="0">5</tspan><tspan y="0" font-size="13.999" baseline-shift="7.999">ème</tspan><tspan x="-39.468" y="28">années</tspan></text><text transform="translate(1 931)" fill="#717171" font-size="13" font-family="FiraSans-Regular, Fira Sans"><tspan x="3.602" y="12">Spécialisez vous encore plus dans</tspan><tspan x="12.104" y="27">le numérique pour en devenir un</tspan><tspan x="22.647" y="42">expert et devenir entrepreneur.</tspan></text></g></g></g></svg>