<?xml version="1.0" encoding="utf-8"?>
<!-- Generator: Adobe Illustrator 25.3.0, SVG Export Plug-In . SVG Version: 6.00 Build 0)  -->
<!DOCTYPE svg PUBLIC "-//W3C//DTD SVG 1.1//EN" "http://www.w3.org/Graphics/SVG/1.1/DTD/svg11.dtd" [
	<!ENTITY ns_extend "http://ns.adobe.com/Extensibility/1.0/">
	<!ENTITY ns_ai "http://ns.adobe.com/AdobeIllustrator/10.0/">
	<!ENTITY ns_graphs "http://ns.adobe.com/Graphs/1.0/">
	<!ENTITY ns_vars "http://ns.adobe.com/Variables/1.0/">
	<!ENTITY ns_imrep "http://ns.adobe.com/ImageReplacement/1.0/">
	<!ENTITY ns_sfw "http://ns.adobe.com/SaveForWeb/1.0/">
	<!ENTITY ns_custom "http://ns.adobe.com/GenericCustomNamespace/1.0/">
	<!ENTITY ns_adobe_xpath "http://ns.adobe.com/XPath/1.0/">
]>
<svg version="1.1" id="Calque_1" xmlns:x="&ns_extend;" xmlns:i="&ns_ai;" xmlns:graph="&ns_graphs;"
	 xmlns="http://www.w3.org/2000/svg" xmlns:xlink="http://www.w3.org/1999/xlink" x="0px" y="0px" viewBox="0 0 334 987"
	 style="enable-background:new 0 0 334 987;" xml:space="preserve">
<style type="text/css">
	.st0{clip-path:url(#SVGID_2_);}
	.st1{fill:#CA4B38;}
	.st2{clip-path:url(#SVGID_4_);}
	.st3{clip-path:url(#SVGID_6_);}
	.st4{fill:#00A5A5;}
	.st5{fill:#FFFFFF;}
	.st6{fill:none;stroke:#00A5A5;stroke-width:7;}
	.st7{clip-path:url(#SVGID_8_);}
	.st8{font-family:'FiraSans-Medium';}
	.st9{font-size:13px;}
	.st10{font-family:'FiraSans-Bold';}
	.st11{font-size:24px;}
	.st12{font-size:13.999px;}
	.st13{fill:#717171;}
	.st14{font-family:'FiraSans-Regular';}
	.st15{fill:#61247F;}
	.st16{fill:#FEC800;}
	.st17{font-size:12px;}
	.st18{font-size:15px;}
</style>
<metadata>
	<sfw  xmlns="&ns_sfw;">
		<slices></slices>
		<sliceSourceBounds  bottomLeftOrigin="true" height="977.6" width="335.6" x="0" y="9.4"></sliceSourceBounds>
	</sfw>
</metadata>
<g id="Groupe_253" transform="translate(-21 -49)">
	<g id="Groupe_252">
		<g id="Section_le_cursus" transform="translate(-19 -1981)">
			<g id="Trait_2" transform="translate(7.469 -14)">
				<g id="Groupe_24" transform="translate(88.378 2198.957)">
					<g>
						<defs>
							<rect id="SVGID_1_" x="0" y="0" width="223.5" height="104.6"/>
						</defs>
						<clipPath id="SVGID_2_">
							<use xlink:href="#SVGID_1_"  style="overflow:visible;"/>
						</clipPath>
						<g id="Groupe_23" class="st0">
							<path id="Tracé_28" class="st1" d="M204.4,79.3L204.4,79.3c-1.4-1.8-1.3-4.4,0.4-5.9c1.5-1.4,3.9-1.4,5.4,0.2
								c0.1,0.1,0.2,0.2,0.2,0.3c1.4,1.8,1.3,4.4-0.4,5.9c-0.7,0.7-1.6,1-2.6,1C206.3,80.7,205.2,80.2,204.4,79.3 M194.4,70.6
								c-1.9-1.2-2.6-3.7-1.6-5.7c0.9-1.9,3.2-2.7,5.1-1.8c0.1,0,0.2,0.1,0.3,0.1c1.9,1.2,2.6,3.7,1.6,5.7c-0.6,1.3-2,2.2-3.5,2.2
								C195.6,71.1,195,71,194.4,70.6 M182.2,66.3c-2.2-0.4-3.7-2.5-3.4-4.8c0.2-2.2,2.2-3.8,4.4-3.6c0,0,0.1,0,0.1,0
								c2.2,0.4,3.7,2.5,3.4,4.8c-0.2,2-1.9,3.6-3.9,3.6C182.6,66.3,182.4,66.3,182.2,66.3 M164.5,61.7c0.1-2.2,2-3.8,4.2-3.7
								c2.2,0.1,3.8,2,3.7,4.2c-0.1,2.1-1.9,3.7-3.9,3.7C166.2,65.8,164.4,63.9,164.5,61.7 M150.1,61.7c0.1-2.2,2-3.8,4.2-3.7
								c2.2,0.1,3.8,2,3.7,4.2c-0.1,2.1-1.9,3.7-3.9,3.7C151.8,65.8,150,63.9,150.1,61.7 M135.7,61.7c0.1-2.2,2-3.8,4.2-3.7
								c2.2,0.1,3.8,2,3.7,4.2c-0.1,2.1-1.9,3.7-3.9,3.7C137.4,65.8,135.7,63.9,135.7,61.7 M121.4,61.7c0.1-2.2,2-3.8,4.2-3.7
								c2.2,0.1,3.8,2,3.7,4.2c-0.1,2.1-1.9,3.7-3.9,3.7C123.1,65.8,121.3,63.9,121.4,61.7 M107,61.7c0.1-2.2,2-3.8,4.2-3.7
								c2.2,0.1,3.8,2,3.7,4.2c-0.1,2.1-1.9,3.7-3.9,3.7C108.7,65.8,106.9,63.9,107,61.7 M92.6,61.7c0.1-2.2,2-3.8,4.2-3.7
								c2.2,0.1,3.8,2,3.7,4.2c-0.1,2.1-1.9,3.7-3.9,3.7C94.3,65.8,92.6,63.9,92.6,61.7 M78.3,61.7c0.1-2.2,2-3.8,4.2-3.7
								c2.2,0.1,3.8,2,3.7,4.2c-0.1,2.1-1.9,3.7-4,3.7C80,65.8,78.2,63.9,78.3,61.7 M63.9,61.7c0.1-2.2,2-3.8,4.2-3.7s3.8,2,3.7,4.2
								c-0.1,2.1-1.9,3.7-4,3.7C65.6,65.8,63.8,63.9,63.9,61.7 M49.6,61.7c0.1-2.2,2-3.8,4.2-3.7c2.2,0.1,3.8,2,3.7,4.2
								c-0.1,2.1-1.9,3.7-3.9,3.7C51.3,65.8,49.5,63.9,49.6,61.7 M38.7,65.5c-2.2-0.4-3.8-2.5-3.4-4.7c0.2-2.2,2.1-3.9,4.3-3.7
								c0,0,0,0,0.1,0c2.2,0.4,3.8,2.5,3.4,4.7c-0.2,2-1.9,3.6-3.9,3.7C39,65.6,38.8,65.6,38.7,65.5 M23.7,60.5
								c-2-1.2-2.7-3.7-1.7-5.7c0.9-1.9,3.2-2.8,5.1-1.9c0.1,0,0.2,0.1,0.3,0.1c2,1.2,2.7,3.7,1.7,5.7c-0.6,1.4-2,2.2-3.5,2.3
								C24.9,61,24.3,60.8,23.7,60.5 M11.3,50.3c-1.5-1.8-1.3-4.3,0.3-5.9c1.5-1.5,3.9-1.4,5.3,0c0.1,0.1,0.2,0.2,0.2,0.3
								c1.5,1.8,1.3,4.3-0.3,6C15.4,52,13,52,11.6,50.5C11.5,50.4,11.4,50.4,11.3,50.3 M3.1,36c-0.8-2.1,0.2-4.5,2.2-5.5
								c2-0.8,4.2,0.2,5,2.1c0,0.1,0.1,0.2,0.1,0.2c0.8,2.1-0.2,4.5-2.2,5.5c-0.5,0.2-0.9,0.3-1.4,0.3C5.1,38.7,3.6,37.6,3.1,36
								 M0,19.6L0,19.6c-0.1-2.3,1.6-4.2,3.9-4.3c2.3,0,4.1,1.9,4,4.1C8,21.7,6.3,23.6,4,23.8H4C1.7,23.7,0,21.8,0,19.6 M0,4.2
								C-0.1,2,1.7,0.1,4,0c2.3,0.1,4,2,3.9,4.2C8,6.5,6.2,8.4,4,8.4C1.7,8.4-0.1,6.5,0,4.2"/>
							<path id="Tracé_29" class="st1" d="M203.5,88.4l13.8,16.2l6.2-20.8L203.5,88.4z"/>
						</g>
					</g>
				</g>
				<g id="Groupe_25" transform="translate(88.378 2746.957)">
					<g>
						<defs>
							<rect id="SVGID_3_" x="0" y="0" width="223.5" height="104.6"/>
						</defs>
						<clipPath id="SVGID_4_">
							<use xlink:href="#SVGID_3_"  style="overflow:visible;"/>
						</clipPath>
						<g id="Groupe_23-2" class="st2">
							<path id="Tracé_28-2" class="st1" d="M204.4,79.3L204.4,79.3c-1.4-1.8-1.3-4.4,0.4-5.9c1.5-1.4,3.9-1.4,5.4,0.2
								c0.1,0.1,0.2,0.2,0.2,0.3c1.4,1.8,1.3,4.4-0.4,5.9c-0.7,0.7-1.6,1-2.6,1C206.3,80.7,205.2,80.2,204.4,79.3 M194.4,70.6
								c-1.9-1.2-2.6-3.7-1.6-5.7c0.9-1.9,3.2-2.7,5.1-1.8c0.1,0,0.2,0.1,0.3,0.1c1.9,1.2,2.6,3.7,1.6,5.7c-0.6,1.3-2,2.2-3.5,2.2
								C195.6,71.1,195,71,194.4,70.6 M182.2,66.3c-2.2-0.4-3.7-2.5-3.4-4.8c0.2-2.2,2.2-3.8,4.4-3.6c0,0,0.1,0,0.1,0
								c2.2,0.4,3.7,2.5,3.4,4.8c-0.2,2-1.9,3.6-3.9,3.6C182.6,66.3,182.4,66.3,182.2,66.3 M164.5,61.7c0.1-2.2,2-3.8,4.2-3.7
								c2.2,0.1,3.8,2,3.7,4.2c-0.1,2.1-1.9,3.7-3.9,3.7C166.2,65.8,164.4,63.9,164.5,61.7 M150.1,61.7c0.1-2.2,2-3.8,4.2-3.7
								c2.2,0.1,3.8,2,3.7,4.2c-0.1,2.1-1.9,3.7-3.9,3.7C151.8,65.8,150,63.9,150.1,61.7 M135.7,61.7c0.1-2.2,2-3.8,4.2-3.7
								c2.2,0.1,3.8,2,3.7,4.2c-0.1,2.1-1.9,3.7-3.9,3.7C137.4,65.8,135.7,63.9,135.7,61.7 M121.4,61.7c0.1-2.2,2-3.8,4.2-3.7
								c2.2,0.1,3.8,2,3.7,4.2c-0.1,2.1-1.9,3.7-3.9,3.7C123.1,65.8,121.3,63.9,121.4,61.7 M107,61.7c0.1-2.2,2-3.8,4.2-3.7
								c2.2,0.1,3.8,2,3.7,4.2c-0.1,2.1-1.9,3.7-3.9,3.7C108.7,65.8,106.9,63.9,107,61.7 M92.6,61.7c0.1-2.2,2-3.8,4.2-3.7
								c2.2,0.1,3.8,2,3.7,4.2c-0.1,2.1-1.9,3.7-3.9,3.7C94.3,65.8,92.6,63.9,92.6,61.7 M78.3,61.7c0.1-2.2,2-3.8,4.2-3.7
								c2.2,0.1,3.8,2,3.7,4.2c-0.1,2.1-1.9,3.7-4,3.7C80,65.8,78.2,63.9,78.3,61.7 M63.9,61.7c0.1-2.2,2-3.8,4.2-3.7s3.8,2,3.7,4.2
								c-0.1,2.1-1.9,3.7-4,3.7C65.6,65.8,63.8,63.9,63.9,61.7 M49.6,61.7c0.1-2.2,2-3.8,4.2-3.7c2.2,0.1,3.8,2,3.7,4.2
								c-0.1,2.1-1.9,3.7-3.9,3.7C51.3,65.8,49.5,63.9,49.6,61.7 M38.7,65.5c-2.2-0.4-3.8-2.5-3.4-4.7c0.2-2.2,2.1-3.9,4.3-3.7
								c0,0,0,0,0.1,0c2.2,0.4,3.8,2.5,3.4,4.7c-0.2,2-1.9,3.6-3.9,3.7C39,65.6,38.8,65.6,38.7,65.5 M23.7,60.5
								c-2-1.2-2.7-3.7-1.7-5.7c0.9-1.9,3.2-2.8,5.1-1.9c0.1,0,0.2,0.1,0.3,0.1c2,1.2,2.7,3.7,1.7,5.7c-0.6,1.4-2,2.2-3.5,2.3
								C24.9,61,24.3,60.8,23.7,60.5 M11.3,50.3c-1.5-1.8-1.3-4.3,0.3-5.9c1.5-1.5,3.9-1.4,5.3,0c0.1,0.1,0.2,0.2,0.2,0.3
								c1.5,1.8,1.3,4.3-0.3,6C15.4,52,13,52,11.6,50.5C11.5,50.4,11.4,50.4,11.3,50.3 M3.1,36c-0.8-2.1,0.2-4.5,2.2-5.5
								c2-0.8,4.2,0.2,5,2.1c0,0.1,0.1,0.2,0.1,0.2c0.8,2.1-0.2,4.5-2.2,5.5c-0.5,0.2-0.9,0.3-1.4,0.3C5.1,38.7,3.6,37.6,3.1,36
								 M0,19.6L0,19.6c-0.1-2.3,1.6-4.2,3.9-4.3c2.3,0,4.1,1.9,4,4.1C8,21.7,6.3,23.6,4,23.8H4C1.7,23.7,0,21.8,0,19.6 M0,4.2
								C-0.1,2,1.7,0.1,4,0c2.3,0.1,4,2,3.9,4.2C8,6.5,6.2,8.4,4,8.4C1.7,8.4-0.1,6.5,0,4.2"/>
							<path id="Tracé_29-2" class="st1" d="M203.5,88.4l13.8,16.2l6.2-20.8L203.5,88.4z"/>
						</g>
					</g>
				</g>
				<g id="Groupe_26" transform="translate(88.378 2476.957)">
					<g>
						<defs>
							<rect id="SVGID_5_" x="0" y="0" width="223.5" height="104.6"/>
						</defs>
						<clipPath id="SVGID_6_">
							<use xlink:href="#SVGID_5_"  style="overflow:visible;"/>
						</clipPath>
						<g id="Groupe_23-3" class="st3">
							<path id="Tracé_28-3" class="st1" d="M19,79.3L19,79.3c1.4-1.8,1.3-4.4-0.4-5.9c-1.5-1.4-3.9-1.4-5.4,0.2
								c-0.1,0.1-0.2,0.2-0.2,0.3c-1.4,1.8-1.3,4.4,0.4,5.9c0.7,0.7,1.6,1,2.6,1C17.2,80.7,18.3,80.2,19,79.3 M29.1,70.6
								c1.9-1.2,2.6-3.7,1.6-5.7c-0.9-1.9-3.2-2.7-5.1-1.8c-0.1,0-0.2,0.1-0.3,0.1c-1.9,1.2-2.6,3.7-1.6,5.7c0.6,1.3,2,2.2,3.5,2.2
								C27.8,71.1,28.5,71,29.1,70.6 M41.3,66.3c2.2-0.4,3.7-2.5,3.4-4.8c-0.2-2.2-2.2-3.8-4.4-3.6c0,0-0.1,0-0.1,0
								c-2.2,0.4-3.7,2.5-3.4,4.8c0.2,2,1.9,3.6,3.9,3.6C40.9,66.3,41.1,66.3,41.3,66.3 M59,61.7c-0.1-2.2-2-3.8-4.2-3.7
								c-2.2,0.1-3.8,2-3.7,4.2c0.1,2.1,1.9,3.7,3.9,3.7C57.3,65.8,59.1,63.9,59,61.7 M73.4,61.7c-0.1-2.2-2-3.8-4.2-3.7
								c-2.2,0.1-3.8,2-3.7,4.2c0.1,2.1,1.9,3.7,3.9,3.7C71.7,65.8,73.5,63.9,73.4,61.7 M87.8,61.7c-0.1-2.2-2-3.8-4.2-3.7
								c-2.2,0.1-3.8,2-3.7,4.2c0.1,2.1,1.9,3.7,3.9,3.7C86.1,65.8,87.8,63.9,87.8,61.7 M102.1,61.7c-0.1-2.2-2-3.8-4.2-3.7
								c-2.2,0.1-3.8,2-3.7,4.2c0.1,2.1,1.9,3.7,3.9,3.7C100.4,65.8,102.2,63.9,102.1,61.7 M116.5,61.7c-0.1-2.2-2-3.8-4.2-3.7
								c-2.2,0.1-3.8,2-3.7,4.2c0.1,2.1,1.9,3.7,3.9,3.7C114.8,65.8,116.6,63.9,116.5,61.7 M130.8,61.7c-0.1-2.2-2-3.8-4.2-3.7
								c-2.2,0.1-3.8,2-3.7,4.2c0.1,2.1,1.9,3.7,3.9,3.7C129.1,65.8,130.9,63.9,130.8,61.7 M145.2,61.7c-0.1-2.2-2-3.8-4.2-3.7
								c-2.2,0.1-3.8,2-3.7,4.2c0.1,2.1,1.9,3.7,4,3.7C143.5,65.8,145.3,63.9,145.2,61.7 M159.6,61.7c-0.1-2.2-2-3.8-4.2-3.7
								c-2.2,0.1-3.8,2-3.7,4.2c0.1,2.1,1.9,3.7,4,3.7C157.9,65.8,159.6,63.9,159.6,61.7 M173.9,61.7c-0.1-2.2-2-3.8-4.2-3.7
								c-2.2,0.1-3.8,2-3.7,4.2c0.1,2.1,1.9,3.7,3.9,3.7C172.2,65.8,174,63.9,173.9,61.7 M184.8,65.5c2.2-0.4,3.8-2.5,3.4-4.7
								c-0.2-2.2-2.1-3.9-4.3-3.7c0,0,0,0-0.1,0c-2.2,0.4-3.8,2.5-3.4,4.7c0.2,2,1.9,3.6,3.9,3.7C184.5,65.6,184.7,65.6,184.8,65.5
								 M199.8,60.5c2-1.2,2.7-3.7,1.7-5.7c-0.9-1.9-3.2-2.8-5.1-1.9c-0.1,0-0.2,0.1-0.3,0.1c-2,1.2-2.7,3.7-1.7,5.7
								c0.6,1.4,2,2.2,3.5,2.3C198.6,61,199.2,60.9,199.8,60.5 M212.2,50.3c1.5-1.8,1.3-4.3-0.3-5.9c-1.5-1.5-3.9-1.4-5.3,0
								c-0.1,0.1-0.2,0.2-0.2,0.3c-1.5,1.8-1.3,4.3,0.3,6c1.5,1.5,3.9,1.4,5.3-0.1C212,50.4,212.1,50.4,212.2,50.3 M220.4,36
								c0.8-2.1-0.2-4.5-2.2-5.5c-2-0.8-4.2,0.2-5,2.1c0,0.1-0.1,0.2-0.1,0.2c-0.8,2.1,0.2,4.5,2.2,5.5c0.5,0.2,0.9,0.3,1.4,0.3
								C218.4,38.7,219.9,37.6,220.4,36 M223.5,19.6L223.5,19.6c0.2-2.2-1.4-4.1-3.6-4.3c-2.2-0.2-4.1,1.4-4.3,3.6
								c0,0.2,0,0.3,0,0.5c-0.1,2.3,1.6,4.2,3.9,4.3h0.1C221.8,23.7,223.5,21.8,223.5,19.6 M223.5,4.2c0.1-2.2-1.5-4.1-3.7-4.2
								s-4.1,1.5-4.2,3.7c0,0.2,0,0.3,0,0.5c-0.1,2.2,1.5,4.1,3.7,4.2s4.1-1.5,4.2-3.7C223.5,4.6,223.5,4.4,223.5,4.2"/>
							<path id="Tracé_29-3" class="st1" d="M20,88.4L6.2,104.6L0,83.8L20,88.4z"/>
						</g>
					</g>
				</g>
			</g>
			<g id="Infographie" transform="translate(0 -30)">
				<g id="_1">
					<path id="Tracé_9" class="st4" d="M142,2097h210l-14.2,54H142V2097z"/>
					<g id="Ellipse_104" transform="translate(40 2060)">
						<circle class="st5" cx="63.5" cy="63.5" r="63.5"/>
						<circle class="st6" cx="63.5" cy="63.5" r="60"/>
					</g>
					<g>
						<defs>
							<rect id="SVGID_7_" x="173" y="2111" width="159" height="26"/>
						</defs>
						<clipPath id="SVGID_8_">
							<use xlink:href="#SVGID_7_"  style="overflow:visible;"/>
						</clipPath>
						<g id="Groupe_défilant_1" transform="translate(219 2109)" class="st7">
							<text transform="matrix(1 0 0 1 -34 20)" class="st5 st8 st9">Concepteur numérique</text>
						</g>
					</g>
					<text transform="matrix(1 0 0 1 87.108 2116)" class="st1 st10 st11">1</text>
					<text transform="matrix(1 0 0 1 98.2437 2108.0007)" class="st1 st10 st12">ère</text>
					<text transform="matrix(1 0 0 1 69.328 2144)" class="st1 st10 st11">année</text>
					<text transform="matrix(1 0 0 1 167 2174)" class="st13 st14 st9">Suivez cette première année pour </text>
					<text transform="matrix(1 0 0 1 167 2189)" class="st13 st14 st9">vous former au métier de </text>
					<text transform="matrix(1 0 0 1 167 2204)" class="st13 st14 st9">concepteur numérique. Cette </text>
					<text transform="matrix(1 0 0 1 167 2219)" class="st13 st14 st9">année est la clé pour poursuivre le </text>
					<text transform="matrix(1 0 0 1 167 2234)" class="st13 st14 st9">cursus et obtenir un Bachelor chef </text>
					<text transform="matrix(1 0 0 1 167 2249)" class="st13 st14 st9">de projet digital.</text>
				</g>
				<g id="_2" transform="translate(0 129)">
					<g id="Groupe_17" transform="translate(-13 -30)">
						<path id="Tracé_11" class="st4" d="M284.3,2278.2H57l15.4,27.6h211.9L284.3,2278.2z"/>
						<path id="Tracé_12" class="st15" d="M289.3,2332.4H62l15.4,27.6h211.9L289.3,2332.4z"/>
					</g>
					<g id="Groupe_251" transform="translate(-20 -35)">
						<path id="Tracé_10" class="st1" d="M295.3,2256H68l15.4,27.6h211.9L295.3,2256z"/>
						<path id="Tracé_12-2" class="st16" d="M292.3,2309.4H65l15.4,27.6h211.9L292.3,2309.4z"/>
					</g>
					<g id="Ellipse_105" transform="translate(247 2212)">
						<circle class="st5" cx="63.5" cy="63.5" r="63.5"/>
						<circle class="st6" cx="63.5" cy="63.5" r="60"/>
					</g>
					<text transform="matrix(1 0 0 1 74 2238)" class="st5 st8 st9">Spécialisation Web Marketing</text>
					<text transform="matrix(1 0 0 1 95 2266)" class="st5 st8 st9">Spécialisation Design</text>
					<text transform="matrix(1 0 0 1 61 2293)" class="st5 st8 st9">Spécialisation Développement</text>
					<text transform="matrix(1 0 0 1 291.154 2268)" class="st1 st10 st11">2</text>
					<text transform="matrix(1 0 0 1 303.562 2260.0007)" class="st1 st10 st12">ème</text>
					<text transform="matrix(1 0 0 1 277.328 2296)" class="st1 st10 st11">année</text>
					<text transform="matrix(1 0 0 1 53.54 2348)" class="st13 st14 st17">Choisissez un de ces quatre domaines </text>
					<text transform="matrix(1 0 0 1 62.324 2362)" class="st13 st14 st17">et spécialisez vous pour suivre votre </text>
					<text transform="matrix(1 0 0 1 131.204 2376)" class="st13 st14 st17">univers de prédilection.</text>
					<text transform="matrix(1 0 0 1 63 2319)" class="st5 st8 st17">Spécialisation Community Manager</text>
				</g>
				<g id="_3" transform="translate(0 256)">
					<path id="Tracé_13" class="st4" d="M142,2401h210l-14.2,54H142V2401z"/>
					<g id="Ellipse_107" transform="translate(40 2364)">
						<circle class="st5" cx="63.5" cy="63.5" r="63.5"/>
						<circle class="st6" cx="63.5" cy="63.5" r="60"/>
					</g>
					<text transform="matrix(1 0 0 1 173 2425)" class="st5 st8 st9">Bachelor : Chef de Projet</text>
					<text transform="matrix(1 0 0 1 173 2440)" class="st5 st8 st9">Digital</text>
					<text transform="matrix(1 0 0 1 83.118 2421)" class="st1 st10 st11">3</text>
					<text transform="matrix(1 0 0 1 95.5977 2413.0007)" class="st1 st10 st12">ème</text>
					<text transform="matrix(1 0 0 1 69.328 2449)" class="st1 st10 st11">année</text>
					<text transform="matrix(1 0 0 1 167 2482)" class="st13 st14 st9">Obtenez le mental et l&apos;attitude </text>
					<text transform="matrix(1 0 0 1 167 2497)" class="st13 st14 st9">d&apos;un chef de projet et validez votre </text>
					<text transform="matrix(1 0 0 1 167 2512)" class="st13 st14 st9">Bachelor.</text>
				</g>
				<g id="_5" transform="translate(0 203)">
					<path id="Tracé_16" class="st4" d="M272,2716H62l14.2,54H272V2716z"/>
					<text transform="matrix(1 0 0 1 90 2740)" class="st5 st8 st9">Master : Expert du</text>
					<text transform="matrix(1 0 0 1 90 2755)" class="st5 st8 st9">numérique</text>
					<g id="Ellipse_106" transform="translate(247 2676)">
						<circle class="st5" cx="63.5" cy="63.5" r="63.5"/>
						<circle class="st6" cx="63.5" cy="63.5" r="60"/>
					</g>
					<text transform="matrix(1 0 0 1 280.678 2734)" class="st1 st10 st11">4</text>
					<text transform="matrix(1 0 0 1 294.2377 2734)" class="st1 st14 st18">&amp;</text>
					<text transform="matrix(1 0 0 1 305.1725 2734)" class="st1 st10 st11">5</text>
					<text transform="matrix(1 0 0 1 318.0364 2726.0007)" class="st1 st10 st12">ème</text>
					<text transform="matrix(1 0 0 1 273.532 2762)" class="st1 st10 st11">années</text>
					<text transform="matrix(1 0 0 1 43.602 2800)" class="st13 st14 st9"> Spécialisez vous encore plus dans </text>
					<text transform="matrix(1 0 0 1 52.104 2815)" class="st13 st14 st9">le numérique pour en devenir un </text>
					<text transform="matrix(1 0 0 1 62.647 2830)" class="st13 st14 st9">expert et devenir entrepreneur.</text>
				</g>
			</g>
		</g>
	</g>
</g>
</svg>
