<?xml version="1.0" encoding="utf-8"?>
<!-- Generator: Adobe Illustrator 25.2.3, SVG Export Plug-In . SVG Version: 6.00 Build 0)  -->
<svg version="1.1" id="Calque_1" xmlns="http://www.w3.org/2000/svg" xmlns:xlink="http://www.w3.org/1999/xlink" x="0px" y="0px"
	 viewBox="0 0 1520 749.8" style="enable-background:new 0 0 1520 749.8;" xml:space="preserve">
<style type="text/css">
	.st0{opacity:0.5;}
	.st1{opacity:0.28;}
	.st2{fill:#FFFFFF;}
	.st3{fill:none;stroke:#CA4B38;stroke-width:9;}
	.st4{fill:none;stroke:#CA4B38;stroke-width:10;stroke-linecap:round;stroke-dasharray:0,30;}
	.st5{fill:none;stroke:#00A5A5;stroke-width:7;}
	.st6{fill:#CA4B38;}
	.st7{font-family:'FiraSans-Bold';}
	.st8{font-size:26px;}
	.st9{font-size:15.166px;}
	.st10{font-size:24px;}
	.st11{font-family:'FiraSans-Regular';}
	.st12{font-size:15px;}
	.st13{font-size:13.999px;}
	.st14{fill:#717171;}
	.st15{fill:#00A5A5;}
	.st16{font-family:'FiraSans-Medium';}
	.st17{fill:#FEC800;}
	.st18{fill:#0E76B5;}
	.st19{font-size:14px;}
</style>
<g id="Infographie" transform="translate(-200 -2216.155)">
	<g id="Groupe_167" class="st0">
		<g id="Ellipse_231" transform="translate(200 2638)" class="st1">
			<circle class="st2" cx="10" cy="11" r="10"/>
			<circle class="st3" cx="10" cy="11" r="5.5"/>
		</g>
		<g id="Ellipse_232" transform="translate(691 2695)" class="st1">
			<circle class="st2" cx="30" cy="20" r="30"/>
			<circle class="st3" cx="30" cy="31" r="25.5"/>
		</g>
		<g id="Ellipse_233" transform="translate(915 2476)" class="st1">
			<ellipse class="st2" cx="34.5" cy="35" rx="34.5" ry="34"/>
			<ellipse class="st3" cx="34.5" cy="35" rx="30" ry="29.5"/>
		</g>
		<g id="Ellipse_234" transform="translate(1212 2582)" class="st1">
			<circle class="st2" cx="42" cy="43" r="42"/>
			<circle class="st3" cx="42" cy="43" r="37.5"/>
		</g>
		<g id="Ellipse_237" transform="translate(367 2575)" class="st1">
			<ellipse class="st2" cx="18" cy="18.5" rx="18" ry="17.5"/>
			<ellipse class="st3" cx="18" cy="18.5" rx="13.5" ry="13"/>
		</g>
		<g id="Ellipse_235" transform="translate(1267 2259)" class="st1">
			<ellipse class="st2" cx="53" cy="53.5" rx="53" ry="52.5"/>
			<ellipse class="st3" cx="53" cy="53.5" rx="48.5" ry="48"/>
		</g>
		<g id="Ellipse_236" transform="translate(1581 2294)" class="st1">
			<circle class="st2" cx="69.5" cy="70.5" r="69.5"/>
			<circle class="st3" cx="69.5" cy="70.5" r="65"/>
		</g>
	</g>
	<g id="Groupe_168">
		<path id="Tracé_97" class="st4" d="M350,2673.6c407.5,0,1042.2-148.9,1220-448.6"/>
		<g id="Groupe_104" transform="translate(390.703 2595.937)">
			<g id="Ellipse_104" transform="translate(0.297 0.063)">
				<circle class="st2" cx="74" cy="75" r="74"/>
				<circle class="st5" cx="74" cy="75" r="70.5"/>
			</g>
			<text transform="matrix(1 0 0 1 55.08 67.063)" class="st6 st7 st8">1</text>
			<text transform="matrix(1 0 0 1 67.1437 58.3972)" class="st6 st7 st9">ère</text>
			<text transform="matrix(1 0 0 1 35.819 98.063)" class="st6 st7 st8">année</text>
		</g>
		<g id="Groupe_105" transform="translate(749.193 2548.531)">
			<g id="Ellipse_104-2" transform="translate(-0.193 0.469)">
				<circle class="st2" cx="74" cy="75" r="74"/>
				<circle class="st5" cx="74" cy="75" r="70.5"/>
			</g>
			<text transform="matrix(1 0 0 1 51.307 67.469)" class="st6 st7 st8">2</text>
			<text transform="matrix(1 0 0 1 64.749 58.8032)" class="st6 st7 st9">ème</text>
			<text transform="matrix(1 0 0 1 36.329 98.469)" class="st6 st7 st8">année</text>
		</g>
		<g id="Groupe_106" transform="translate(1075.079 2454.335)">
			<g id="Ellipse_104-3" transform="translate(-0.079 -0.335)">
				<circle class="st2" cx="74" cy="75" r="74"/>
				<circle class="st5" cx="74" cy="75" r="70.5"/>
			</g>
			<text transform="matrix(1 0 0 1 51.382 66.665)" class="st6 st7 st8">3</text>
			<text transform="matrix(1 0 0 1 64.9017 57.9992)" class="st6 st7 st9">ème</text>
			<text transform="matrix(1 0 0 1 36.443 97.665)" class="st6 st7 st8">année</text>
		</g>
		<path id="Polygone_2" class="st6" d="M1570.8,2228l-3.2,37.3l-30.8-21.6L1570.8,2228z"/>
		<g id="Groupe_108" transform="translate(21 1)">
			<g id="Groupe_107" transform="translate(1364.051 2287.452)">
				<g id="Ellipse_104-4" transform="translate(-0.051 -0.452)">
					<circle class="st2" cx="74" cy="75" r="74"/>
					<circle class="st5" cx="74" cy="75" r="70.5"/>
				</g>
			</g>
			<text transform="matrix(1 0 0 1 1405.678 2356)" class="st6 st7 st10">4</text>
			<text transform="matrix(1 0 0 1 1419.2377 2356)" class="st6 st11 st12">&amp;</text>
			<text transform="matrix(1 0 0 1 1430.1725 2356)" class="st6 st7 st10">5</text>
			<text transform="matrix(1 0 0 1 1443.0364 2348.0007)" class="st6 st7 st13">ème</text>
			<text transform="matrix(1 0 0 1 1398.532 2384)" class="st6 st7 st10">années</text>
		</g>
	</g>
	<g id="Groupe_177">
		<g id="Groupe_176">
			<text transform="matrix(1 0 0 1 351.358 2859)" class="st14 st11 st12">Suivez cette première année pour </text>
			<text transform="matrix(1 0 0 1 379.183 2877)" class="st14 st11 st12">vous former au métier de </text>
			<text transform="matrix(1 0 0 1 366.92 2895)" class="st14 st11 st12">concepteur numérique. Cette </text>
			<text transform="matrix(1 0 0 1 355.64 2913)" class="st14 st11 st12">année est la clé pour poursuivre </text>
			<text transform="matrix(1 0 0 1 356.668 2931)" class="st14 st11 st12">le cursus et obtenir un Bachelor </text>
			<text transform="matrix(1 0 0 1 392.682 2949)" class="st14 st11 st12">chef de projet digital.</text>
			<g id="Groupe_175">
				<path id="Tracé_98" class="st15" d="M329.7,2770H603v52H329.7V2770z"/>
				<text transform="matrix(1 0 0 1 337.145 2802)" class="st2 st16 st12">Cursus initial : Concepteur numérique</text>
			</g>
		</g>
		<g id="Groupe_170">
			<rect id="Rectangle_125" x="1034" y="2638" class="st15" width="230" height="52"/>
			<text transform="matrix(1 0 0 1 1045.835 2718)" class="st14 st11 st12">Obtenez le mental et l&apos;attitude </text>
			<text transform="matrix(1 0 0 1 1050.6431 2736)" class="st14 st11 st12">d&apos;un chef de projet et validez </text>
			<text transform="matrix(1 0 0 1 1098.665 2754)" class="st14 st11 st12">votre Bachelor.</text>
			<text transform="matrix(1 0 0 1 1041.54 2668)" class="st2 st16 st12">Bachelor : Chef de Projet digital</text>
		</g>
		<g id="Groupe_169">
			<rect id="Rectangle_126" x="1340" y="2477" class="st15" width="230" height="52"/>
			<text transform="matrix(1 0 0 1 1356.605 2555)" class="st14 st11 st12"> Spécialisez vous encore plus </text>
			<text transform="matrix(1 0 0 1 1363.04 2573)" class="st14 st11 st12">dans le numérique pour en </text>
			<text transform="matrix(1 0 0 1 1358.803 2591)" class="st14 st11 st12">devenir un expert et devenir </text>
			<text transform="matrix(1 0 0 1 1409.3979 2609)" class="st14 st11 st12">entrepreneur.</text>
			<text transform="matrix(1 0 0 1 1354.403 2508)" class="st2 st16 st12">Master : Expert du numérique</text>
		</g>
		<g id="Groupe_174">
			<text transform="matrix(1 0 0 1 736.942 2890)" class="st14 st11 st12">Choisissez un de ces trois </text>
			<text transform="matrix(1 0 0 1 724.485 2908)" class="st14 st11 st12">domaines et spécialisez vous </text>
			<text transform="matrix(1 0 0 1 728.04 2926)" class="st14 st11 st12">pour suivre votre univers de </text>
			<text transform="matrix(1 0 0 1 780.457 2944)" class="st14 st11 st12">prédilection.</text>
			<g id="Groupe_171">
				<path id="Tracé_158" class="st6" d="M708,2710h230v36H708V2710z"/>
				<text transform="matrix(1 0 0 1 723.103 2733)" class="st2 st16 st12">Spécialisation Web Marketing</text>
			</g>
			<g id="Groupe_172">
				<rect id="Rectangle_127" x="708" y="2751" class="st15" width="230" height="36"/>
				<text transform="matrix(1 0 0 1 750.988 2775)" class="st2 st16 st12">Spécialisation Design</text>
			</g>
			<g id="Groupe_173">
				<rect id="Rectangle_128" x="708" y="2793" class="st17" width="230" height="36"/>
				<text transform="matrix(1 0 0 1 719.975 2816)" class="st2 st16 st12">Spécialisation Développement</text>
			</g>
		</g>
	</g>
</g>
<path id="Tracé_158_1_" class="st18" d="M508,618.9h230v36H508V618.9z"/>
<text transform="matrix(1 0 0 1 511.23 642.8445)" class="st2 st16 st19">Spécialisation Community Manager</text>
</svg>
