<?xml version="1.0" encoding="utf-8"?>
<!-- Generator: Adobe Illustrator 25.2.1, SVG Export Plug-In . SVG Version: 6.00 Build 0)  -->
<!DOCTYPE svg [
	<!ENTITY ns_extend "http://ns.adobe.com/Extensibility/1.0/">
	<!ENTITY ns_ai "http://ns.adobe.com/AdobeIllustrator/10.0/">
	<!ENTITY ns_graphs "http://ns.adobe.com/Graphs/1.0/">
	<!ENTITY ns_vars "http://ns.adobe.com/Variables/1.0/">
	<!ENTITY ns_imrep "http://ns.adobe.com/ImageReplacement/1.0/">
	<!ENTITY ns_sfw "http://ns.adobe.com/SaveForWeb/1.0/">
	<!ENTITY ns_custom "http://ns.adobe.com/GenericCustomNamespace/1.0/">
	<!ENTITY ns_adobe_xpath "http://ns.adobe.com/XPath/1.0/">
]>
<svg version="1.2" baseProfile="tiny" id="Calque_1" xmlns:x="&ns_extend;" xmlns:i="&ns_ai;" xmlns:graph="&ns_graphs;"
	 xmlns="http://www.w3.org/2000/svg" xmlns:xlink="http://www.w3.org/1999/xlink" x="0px" y="0px" viewBox="0 0 1520 749.8"
	 overflow="visible" xml:space="preserve">
<metadata>
	<sfw  xmlns="&ns_sfw;">
		<slices></slices>
		<sliceSourceBounds  bottomLeftOrigin="true" height="632" width="1520" x="0" y="115"></sliceSourceBounds>
	</sfw>
</metadata>
<image width="1520" height="496" xlink:href="79AA1FA5.png"  transform="matrix(1 0 0 1 0 42.845)">
</image>
<path fill="none" stroke="#CA4B38" stroke-width="10" stroke-linecap="round" stroke-dasharray="0,30" d="M150,456.5
	c407.5,0,1042.2-148.9,1220-448.6"/>
<g>
	<circle fill="#FFFFFF" cx="265" cy="453.8" r="74"/>
	<circle fill="none" stroke="#00A5A5" stroke-width="7" cx="265" cy="453.8" r="70.5"/>
</g>
<text transform="matrix(1 0 0 1 245.783 445.845)" fill="#CA4B38" font-family="'FiraSans-Bold'" font-size="26px">1</text>
<text transform="matrix(1 0 0 1 257.8467 437.1792)" fill="#CA4B38" font-family="'FiraSans-Bold'" font-size="15.166px">è</text>
<text transform="matrix(1 0 0 1 266.2183 437.1792)" fill="#CA4B38" font-family="'FiraSans-Bold'" font-size="15.166px">r</text>
<text transform="matrix(1 0 0 1 271.8448 437.1792)" fill="#CA4B38" font-family="'FiraSans-Bold'" font-size="15.166px">e</text>
<text transform="matrix(1 0 0 1 226.522 476.845)" fill="#CA4B38" font-family="'FiraSans-Bold'" font-size="26px">année</text>
<g>
	<circle fill="#FFFFFF" cx="623" cy="406.8" r="74"/>
	<circle fill="none" stroke="#00A5A5" stroke-width="7" cx="623" cy="406.8" r="70.5"/>
</g>
<text transform="matrix(1 0 0 1 606.354 398.845)" fill="#CA4B38" font-family="'FiraSans-Bold'" font-size="26px">2</text>
<text transform="matrix(1 0 0 1 619.796 390.1792)" fill="#CA4B38" font-family="'FiraSans-Bold'" font-size="15.166px">ème</text>
<text transform="matrix(1 0 0 1 585.522 429.845)" fill="#CA4B38" font-family="'FiraSans-Bold'" font-size="26px">année</text>
<g>
	<circle fill="#FFFFFF" cx="949" cy="311.8" r="74"/>
	<circle fill="none" stroke="#00A5A5" stroke-width="7" cx="949" cy="311.8" r="70.5"/>
</g>
<text transform="matrix(1 0 0 1 926.4609 303.845)" fill="#CA4B38" font-family="'FiraSans-Bold'" font-size="26px">3</text>
<text transform="matrix(1 0 0 1 939.9807 295.1792)" fill="#CA4B38" font-family="'FiraSans-Bold'" font-size="15.166px">ème</text>
<text transform="matrix(1 0 0 1 911.522 334.845)" fill="#CA4B38" font-family="'FiraSans-Bold'" font-size="26px">année</text>
<path fill="#CA4B38" d="M1370.8,10.8l-3.2,37.3l-30.8-21.6L1370.8,10.8z"/>
<g>
	<circle fill="#FFFFFF" cx="1259" cy="145.8" r="74"/>
	<circle fill="none" stroke="#00A5A5" stroke-width="7" cx="1259" cy="145.8" r="70.5"/>
</g>
<text transform="matrix(1 0 0 1 1226.678 139.845)" fill="#CA4B38" font-family="'FiraSans-Bold'" font-size="24px">4</text>
<text transform="matrix(1 0 0 1 1240.2377 139.845)" fill="#CA4B38" font-family="'FiraSans-Regular'" font-size="15px">&amp;</text>
<text transform="matrix(1 0 0 1 1251.1725 139.845)" fill="#CA4B38" font-family="'FiraSans-Bold'" font-size="24px">5</text>
<text transform="matrix(1 0 0 1 1264.0364 131.8458)" fill="#CA4B38" font-family="'FiraSans-Bold'" font-size="13.999px">ème</text>
<text transform="matrix(1 0 0 1 1219.532 167.845)" fill="#CA4B38" font-family="'FiraSans-Bold'" font-size="24px">années</text>
<path fill="#00A5A5" d="M150,559.8h230v52H150V559.8z"/>
<text transform="matrix(1 0 0 1 174.205 581.845)" fill="#FFFFFF" font-family="'FiraSans-Medium'" font-size="15px">C</text>
<text transform="matrix(1 0 0 1 182.4853 581.845)" fill="#FFFFFF" font-family="'FiraSans-Medium'" font-size="15px">u</text>
<text transform="matrix(1 0 0 1 191.1401 581.845)" fill="#FFFFFF" font-family="'FiraSans-Medium'" font-size="15px">r</text>
<text transform="matrix(1 0 0 1 196.8554 581.845)" fill="#FFFFFF" font-family="'FiraSans-Medium'" font-size="15px">s</text>
<text transform="matrix(1 0 0 1 203.9951 581.845)" fill="#FFFFFF" font-family="'FiraSans-Medium'" font-size="15px">u</text>
<text transform="matrix(1 0 0 1 212.6498 581.845)" fill="#FFFFFF" font-family="'FiraSans-Medium'" font-size="15px">s</text>
<text transform="matrix(1 0 0 1 219.79 581.845)" fill="#FFFFFF" font-family="'FiraSans-Medium'" font-size="15px"> </text>
<text transform="matrix(1 0 0 1 223.54 581.845)" fill="#FFFFFF" font-family="'FiraSans-Medium'" font-size="15px">i</text>
<text transform="matrix(1 0 0 1 227.77 581.845)" fill="#FFFFFF" font-family="'FiraSans-Medium'" font-size="15px">n</text>
<text transform="matrix(1 0 0 1 236.4848 581.845)" fill="#FFFFFF" font-family="'FiraSans-Medium'" font-size="15px">i</text>
<text transform="matrix(1 0 0 1 240.7148 581.845)" fill="#FFFFFF" font-family="'FiraSans-Medium'" font-size="15px">t</text>
<text transform="matrix(1 0 0 1 246.3398 581.845)" fill="#FFFFFF" font-family="'FiraSans-Medium'" font-size="15px">i</text>
<text transform="matrix(1 0 0 1 250.5698 581.845)" fill="#FFFFFF" font-family="'FiraSans-Medium'" font-size="15px">a</text>
<text transform="matrix(1 0 0 1 258.6098 581.845)" fill="#FFFFFF" font-family="'FiraSans-Medium'" font-size="15px">l</text>
<text transform="matrix(1 0 0 1 263.0346 581.845)" fill="#FFFFFF" font-family="'FiraSans-Medium'" font-size="15px"> </text>
<text transform="matrix(1 0 0 1 266.7846 581.845)" fill="#FFFFFF" font-family="'FiraSans-Medium'" font-size="15px">:</text>
<text transform="matrix(1 0 0 1 270.3847 581.845)" fill="#FFFFFF" font-family="'FiraSans-Medium'" font-size="15px"> </text>
<text transform="matrix(1 0 0 1 274.1347 581.845)" fill="#FFFFFF" font-family="'FiraSans-Medium'" font-size="15px">C</text>
<text transform="matrix(1 0 0 1 282.3544 581.845)" fill="#FFFFFF" font-family="'FiraSans-Medium'" font-size="15px">o</text>
<text transform="matrix(1 0 0 1 291.1147 581.845)" fill="#FFFFFF" font-family="'FiraSans-Medium'" font-size="15px">n</text>
<text transform="matrix(1 0 0 1 299.8295 581.845)" fill="#FFFFFF" font-family="'FiraSans-Medium'" font-size="15px">c</text>
<text transform="matrix(1 0 0 1 306.6996 581.845)" fill="#FFFFFF" font-family="'FiraSans-Medium'" font-size="15px">e</text>
<text transform="matrix(1 0 0 1 314.9345 581.845)" fill="#FFFFFF" font-family="'FiraSans-Medium'" font-size="15px">p</text>
<text transform="matrix(1 0 0 1 323.8745 581.845)" fill="#FFFFFF" font-family="'FiraSans-Medium'" font-size="15px">t</text>
<text transform="matrix(1 0 0 1 329.2446 581.845)" fill="#FFFFFF" font-family="'FiraSans-Medium'" font-size="15px">e</text>
<text transform="matrix(1 0 0 1 337.4794 581.845)" fill="#FFFFFF" font-family="'FiraSans-Medium'" font-size="15px">u</text>
<text transform="matrix(1 0 0 1 346.1342 581.845)" fill="#FFFFFF" font-family="'FiraSans-Medium'" font-size="15px">r</text>
<text transform="matrix(1 0 0 1 352.0444 581.845)" fill="#FFFFFF" font-family="'FiraSans-Medium'" font-size="15px"> </text>
<text transform="matrix(1 0 0 1 227.815 599.845)" fill="#FFFFFF" font-family="'FiraSans-Medium'" font-size="15px">numérique</text>
<path fill="#00A5A5" d="M834,420.8h230v52H834V420.8z"/>
<text transform="matrix(1 0 0 1 865.135 442.845)" fill="#FFFFFF" font-family="'FiraSans-Medium'" font-size="15px">B</text>
<text transform="matrix(1 0 0 1 874.3298 442.845)" fill="#FFFFFF" font-family="'FiraSans-Medium'" font-size="15px">a</text>
<text transform="matrix(1 0 0 1 882.5198 442.845)" fill="#FFFFFF" font-family="'FiraSans-Medium'" font-size="15px">c</text>
<text transform="matrix(1 0 0 1 889.6897 442.845)" fill="#FFFFFF" font-family="'FiraSans-Medium'" font-size="15px">h</text>
<text transform="matrix(1 0 0 1 898.4045 442.845)" fill="#FFFFFF" font-family="'FiraSans-Medium'" font-size="15px">e</text>
<text transform="matrix(1 0 0 1 906.6394 442.845)" fill="#FFFFFF" font-family="'FiraSans-Medium'" font-size="15px">l</text>
<text transform="matrix(1 0 0 1 910.9895 442.845)" fill="#FFFFFF" font-family="'FiraSans-Medium'" font-size="15px">o</text>
<text transform="matrix(1 0 0 1 919.7498 442.845)" fill="#FFFFFF" font-family="'FiraSans-Medium'" font-size="15px">r</text>
<text transform="matrix(1 0 0 1 925.6594 442.845)" fill="#FFFFFF" font-family="'FiraSans-Medium'" font-size="15px"> </text>
<text transform="matrix(1 0 0 1 929.4094 442.845)" fill="#FFFFFF" font-family="'FiraSans-Medium'" font-size="15px">:</text>
<text transform="matrix(1 0 0 1 933.0095 442.845)" fill="#FFFFFF" font-family="'FiraSans-Medium'" font-size="15px"> </text>
<text transform="matrix(1 0 0 1 936.7595 442.845)" fill="#FFFFFF" font-family="'FiraSans-Medium'" font-size="15px">C</text>
<text transform="matrix(1 0 0 1 945.1296 442.845)" fill="#FFFFFF" font-family="'FiraSans-Medium'" font-size="15px">h</text>
<text transform="matrix(1 0 0 1 953.8445 442.845)" fill="#FFFFFF" font-family="'FiraSans-Medium'" font-size="15px">e</text>
<text transform="matrix(1 0 0 1 962.0793 442.845)" fill="#FFFFFF" font-family="'FiraSans-Medium'" font-size="15px">f</text>
<text transform="matrix(1 0 0 1 967.2839 442.845)" fill="#FFFFFF" font-family="'FiraSans-Medium'" font-size="15px"> </text>
<text transform="matrix(1 0 0 1 971.0339 442.845)" fill="#FFFFFF" font-family="'FiraSans-Medium'" font-size="15px">d</text>
<text transform="matrix(1 0 0 1 980.0188 442.845)" fill="#FFFFFF" font-family="'FiraSans-Medium'" font-size="15px">e</text>
<text transform="matrix(1 0 0 1 988.2542 442.845)" fill="#FFFFFF" font-family="'FiraSans-Medium'" font-size="15px"> </text>
<text transform="matrix(1 0 0 1 992.0042 442.845)" fill="#FFFFFF" font-family="'FiraSans-Medium'" font-size="15px">P</text>
<text transform="matrix(1 0 0 1 1000.5691 442.845)" fill="#FFFFFF" font-family="'FiraSans-Medium'" font-size="15px">r</text>
<text transform="matrix(1 0 0 1 1006.0291 442.845)" fill="#FFFFFF" font-family="'FiraSans-Medium'" font-size="15px">o</text>
<text transform="matrix(1 0 0 1 1014.7888 442.845)" fill="#FFFFFF" font-family="'FiraSans-Medium'" font-size="15px">j</text>
<text transform="matrix(1 0 0 1 1019.0037 442.845)" fill="#FFFFFF" font-family="'FiraSans-Medium'" font-size="15px">e</text>
<text transform="matrix(1 0 0 1 1027.2385 442.845)" fill="#FFFFFF" font-family="'FiraSans-Medium'" font-size="15px">t</text>
<text transform="matrix(1 0 0 1 926.9131 460.845)" fill="#FFFFFF" font-family="'FiraSans-Medium'" font-size="15px">D</text>
<text transform="matrix(1 0 0 1 936.6328 460.845)" fill="#FFFFFF" font-family="'FiraSans-Medium'" font-size="15px">i</text>
<text transform="matrix(1 0 0 1 940.8628 460.845)" fill="#FFFFFF" font-family="'FiraSans-Medium'" font-size="15px">g</text>
<text transform="matrix(1 0 0 1 948.918 460.845)" fill="#FFFFFF" font-family="'FiraSans-Medium'" font-size="15px">i</text>
<text transform="matrix(1 0 0 1 953.1479 460.845)" fill="#FFFFFF" font-family="'FiraSans-Medium'" font-size="15px">t</text>
<text transform="matrix(1 0 0 1 958.623 460.845)" fill="#FFFFFF" font-family="'FiraSans-Medium'" font-size="15px">a</text>
<text transform="matrix(1 0 0 1 966.6626 460.845)" fill="#FFFFFF" font-family="'FiraSans-Medium'" font-size="15px">l</text>
<path fill="#00A5A5" d="M1140,259.8h230v52h-230V259.8z"/>
<text transform="matrix(1 0 0 1 1193.463 281.845)" fill="#FFFFFF" font-family="'FiraSans-Medium'" font-size="15px">M</text>
<text transform="matrix(1 0 0 1 1205.193 281.845)" fill="#FFFFFF" font-family="'FiraSans-Medium'" font-size="15px">a</text>
<text transform="matrix(1 0 0 1 1213.233 281.845)" fill="#FFFFFF" font-family="'FiraSans-Medium'" font-size="15px">s</text>
<text transform="matrix(1 0 0 1 1220.3727 281.845)" fill="#FFFFFF" font-family="'FiraSans-Medium'" font-size="15px">t</text>
<text transform="matrix(1 0 0 1 1225.7428 281.845)" fill="#FFFFFF" font-family="'FiraSans-Medium'" font-size="15px">e</text>
<text transform="matrix(1 0 0 1 1233.9777 281.845)" fill="#FFFFFF" font-family="'FiraSans-Medium'" font-size="15px">r</text>
<text transform="matrix(1 0 0 1 1239.8878 281.845)" fill="#FFFFFF" font-family="'FiraSans-Medium'" font-size="15px"> </text>
<text transform="matrix(1 0 0 1 1243.6378 281.845)" fill="#FFFFFF" font-family="'FiraSans-Medium'" font-size="15px">:</text>
<text transform="matrix(1 0 0 1 1247.2374 281.845)" fill="#FFFFFF" font-family="'FiraSans-Medium'" font-size="15px"> </text>
<text transform="matrix(1 0 0 1 1250.9874 281.845)" fill="#FFFFFF" font-family="'FiraSans-Medium'" font-size="15px">E</text>
<text transform="matrix(1 0 0 1 1258.9376 281.845)" fill="#FFFFFF" font-family="'FiraSans-Medium'" font-size="15px">x</text>
<text transform="matrix(1 0 0 1 1266.4376 281.845)" fill="#FFFFFF" font-family="'FiraSans-Medium'" font-size="15px">p</text>
<text transform="matrix(1 0 0 1 1275.3776 281.845)" fill="#FFFFFF" font-family="'FiraSans-Medium'" font-size="15px">e</text>
<text transform="matrix(1 0 0 1 1283.6124 281.845)" fill="#FFFFFF" font-family="'FiraSans-Medium'" font-size="15px">r</text>
<text transform="matrix(1 0 0 1 1289.5226 281.845)" fill="#FFFFFF" font-family="'FiraSans-Medium'" font-size="15px">t</text>
<text transform="matrix(1 0 0 1 1295.1476 281.845)" fill="#FFFFFF" font-family="'FiraSans-Medium'" font-size="15px"> </text>
<text transform="matrix(1 0 0 1 1298.8976 281.845)" fill="#FFFFFF" font-family="'FiraSans-Medium'" font-size="15px">d</text>
<text transform="matrix(1 0 0 1 1307.8824 281.845)" fill="#FFFFFF" font-family="'FiraSans-Medium'" font-size="15px">u</text>
<text transform="matrix(1 0 0 1 1217.8149 299.845)" fill="#FFFFFF" font-family="'FiraSans-Medium'" font-size="15px">numérique</text>
<path fill="#CA4B38" d="M508,514.8h230v36H508V514.8z"/>
<text transform="matrix(1 0 0 1 539.768 536.845)" fill="#FFFFFF" font-family="'FiraSans-Medium'" font-size="15px">S</text>
<text transform="matrix(1 0 0 1 548.1679 536.845)" fill="#FFFFFF" font-family="'FiraSans-Medium'" font-size="15px">p</text>
<text transform="matrix(1 0 0 1 557.1078 536.845)" fill="#FFFFFF" font-family="'FiraSans-Medium'" font-size="15px">é</text>
<text transform="matrix(1 0 0 1 565.3427 536.845)" fill="#FFFFFF" font-family="'FiraSans-Medium'" font-size="15px">c</text>
<text transform="matrix(1 0 0 1 572.5126 536.845)" fill="#FFFFFF" font-family="'FiraSans-Medium'" font-size="15px">i</text>
<text transform="matrix(1 0 0 1 576.7426 536.845)" fill="#FFFFFF" font-family="'FiraSans-Medium'" font-size="15px">a</text>
<text transform="matrix(1 0 0 1 584.7827 536.845)" fill="#FFFFFF" font-family="'FiraSans-Medium'" font-size="15px">l</text>
<text transform="matrix(1 0 0 1 589.2075 536.845)" fill="#FFFFFF" font-family="'FiraSans-Medium'" font-size="15px">i</text>
<text transform="matrix(1 0 0 1 593.4374 536.845)" fill="#FFFFFF" font-family="'FiraSans-Medium'" font-size="15px">s</text>
<text transform="matrix(1 0 0 1 600.4277 536.845)" fill="#FFFFFF" font-family="'FiraSans-Medium'" font-size="15px">a</text>
<text transform="matrix(1 0 0 1 608.6176 536.845)" fill="#FFFFFF" font-family="'FiraSans-Medium'" font-size="15px">t</text>
<text transform="matrix(1 0 0 1 614.2426 536.845)" fill="#FFFFFF" font-family="'FiraSans-Medium'" font-size="15px">i</text>
<text transform="matrix(1 0 0 1 618.4726 536.845)" fill="#FFFFFF" font-family="'FiraSans-Medium'" font-size="15px">o</text>
<text transform="matrix(1 0 0 1 627.2324 536.845)" fill="#FFFFFF" font-family="'FiraSans-Medium'" font-size="15px">n</text>
<text transform="matrix(1 0 0 1 635.9472 536.845)" fill="#FFFFFF" font-family="'FiraSans-Medium'" font-size="15px"> </text>
<text transform="matrix(1 0 0 1 639.6972 536.845)" fill="#FFFFFF" font-family="'FiraSans-Medium'" font-size="15px">M</text>
<text transform="matrix(1 0 0 1 651.4272 536.845)" fill="#FFFFFF" font-family="'FiraSans-Medium'" font-size="15px">a</text>
<text transform="matrix(1 0 0 1 659.6171 536.845)" fill="#FFFFFF" font-family="'FiraSans-Medium'" font-size="15px">r</text>
<text transform="matrix(1 0 0 1 665.5273 536.845)" fill="#FFFFFF" font-family="'FiraSans-Medium'" font-size="15px">k</text>
<text transform="matrix(1 0 0 1 673.3725 536.845)" fill="#FFFFFF" font-family="'FiraSans-Medium'" font-size="15px">e</text>
<text transform="matrix(1 0 0 1 681.6074 536.845)" fill="#FFFFFF" font-family="'FiraSans-Medium'" font-size="15px">t</text>
<text transform="matrix(1 0 0 1 687.2324 536.845)" fill="#FFFFFF" font-family="'FiraSans-Medium'" font-size="15px">i</text>
<text transform="matrix(1 0 0 1 691.4623 536.845)" fill="#FFFFFF" font-family="'FiraSans-Medium'" font-size="15px">n</text>
<text transform="matrix(1 0 0 1 700.1772 536.845)" fill="#FFFFFF" font-family="'FiraSans-Medium'" font-size="15px">g</text>
<path fill="#00A5A5" d="M508,556.8h230v36H508V556.8z"/>
<text transform="matrix(1 0 0 1 550.988 578.845)" fill="#FFFFFF" font-family="'FiraSans-Medium'" font-size="15px">S</text>
<text transform="matrix(1 0 0 1 559.3879 578.845)" fill="#FFFFFF" font-family="'FiraSans-Medium'" font-size="15px">p</text>
<text transform="matrix(1 0 0 1 568.3278 578.845)" fill="#FFFFFF" font-family="'FiraSans-Medium'" font-size="15px">é</text>
<text transform="matrix(1 0 0 1 576.5627 578.845)" fill="#FFFFFF" font-family="'FiraSans-Medium'" font-size="15px">c</text>
<text transform="matrix(1 0 0 1 583.7326 578.845)" fill="#FFFFFF" font-family="'FiraSans-Medium'" font-size="15px">i</text>
<text transform="matrix(1 0 0 1 587.9626 578.845)" fill="#FFFFFF" font-family="'FiraSans-Medium'" font-size="15px">a</text>
<text transform="matrix(1 0 0 1 596.0026 578.845)" fill="#FFFFFF" font-family="'FiraSans-Medium'" font-size="15px">l</text>
<text transform="matrix(1 0 0 1 600.4274 578.845)" fill="#FFFFFF" font-family="'FiraSans-Medium'" font-size="15px">i</text>
<text transform="matrix(1 0 0 1 604.6574 578.845)" fill="#FFFFFF" font-family="'FiraSans-Medium'" font-size="15px">s</text>
<text transform="matrix(1 0 0 1 611.6476 578.845)" fill="#FFFFFF" font-family="'FiraSans-Medium'" font-size="15px">a</text>
<text transform="matrix(1 0 0 1 619.8376 578.845)" fill="#FFFFFF" font-family="'FiraSans-Medium'" font-size="15px">t</text>
<text transform="matrix(1 0 0 1 625.4626 578.845)" fill="#FFFFFF" font-family="'FiraSans-Medium'" font-size="15px">i</text>
<text transform="matrix(1 0 0 1 629.6926 578.845)" fill="#FFFFFF" font-family="'FiraSans-Medium'" font-size="15px">o</text>
<text transform="matrix(1 0 0 1 638.4523 578.845)" fill="#FFFFFF" font-family="'FiraSans-Medium'" font-size="15px">n</text>
<text transform="matrix(1 0 0 1 647.1672 578.845)" fill="#FFFFFF" font-family="'FiraSans-Medium'" font-size="15px"> </text>
<text transform="matrix(1 0 0 1 650.9172 578.845)" fill="#FFFFFF" font-family="'FiraSans-Medium'" font-size="15px">D</text>
<text transform="matrix(1 0 0 1 660.6374 578.845)" fill="#FFFFFF" font-family="'FiraSans-Medium'" font-size="15px">e</text>
<text transform="matrix(1 0 0 1 668.8723 578.845)" fill="#FFFFFF" font-family="'FiraSans-Medium'" font-size="15px">s</text>
<text transform="matrix(1 0 0 1 676.0124 578.845)" fill="#FFFFFF" font-family="'FiraSans-Medium'" font-size="15px">i</text>
<text transform="matrix(1 0 0 1 680.2419 578.845)" fill="#FFFFFF" font-family="'FiraSans-Medium'" font-size="15px">g</text>
<text transform="matrix(1 0 0 1 688.2971 578.845)" fill="#FFFFFF" font-family="'FiraSans-Medium'" font-size="15px">n</text>
<path fill="#FEC800" d="M508,598.8h230v36H508V598.8z"/>
<text transform="matrix(1 0 0 1 519.975 620.845)" fill="#FFFFFF" font-family="'FiraSans-Medium'" font-size="15px">S</text>
<text transform="matrix(1 0 0 1 528.3749 620.845)" fill="#FFFFFF" font-family="'FiraSans-Medium'" font-size="15px">p</text>
<text transform="matrix(1 0 0 1 537.3148 620.845)" fill="#FFFFFF" font-family="'FiraSans-Medium'" font-size="15px">é</text>
<text transform="matrix(1 0 0 1 545.5497 620.845)" fill="#FFFFFF" font-family="'FiraSans-Medium'" font-size="15px">c</text>
<text transform="matrix(1 0 0 1 552.7196 620.845)" fill="#FFFFFF" font-family="'FiraSans-Medium'" font-size="15px">i</text>
<text transform="matrix(1 0 0 1 556.9496 620.845)" fill="#FFFFFF" font-family="'FiraSans-Medium'" font-size="15px">a</text>
<text transform="matrix(1 0 0 1 564.9896 620.845)" fill="#FFFFFF" font-family="'FiraSans-Medium'" font-size="15px">l</text>
<text transform="matrix(1 0 0 1 569.4144 620.845)" fill="#FFFFFF" font-family="'FiraSans-Medium'" font-size="15px">i</text>
<text transform="matrix(1 0 0 1 573.6444 620.845)" fill="#FFFFFF" font-family="'FiraSans-Medium'" font-size="15px">s</text>
<text transform="matrix(1 0 0 1 580.6346 620.845)" fill="#FFFFFF" font-family="'FiraSans-Medium'" font-size="15px">a</text>
<text transform="matrix(1 0 0 1 588.8246 620.845)" fill="#FFFFFF" font-family="'FiraSans-Medium'" font-size="15px">t</text>
<text transform="matrix(1 0 0 1 594.4496 620.845)" fill="#FFFFFF" font-family="'FiraSans-Medium'" font-size="15px">i</text>
<text transform="matrix(1 0 0 1 598.6796 620.845)" fill="#FFFFFF" font-family="'FiraSans-Medium'" font-size="15px">o</text>
<text transform="matrix(1 0 0 1 607.4393 620.845)" fill="#FFFFFF" font-family="'FiraSans-Medium'" font-size="15px">n</text>
<text transform="matrix(1 0 0 1 616.1542 620.845)" fill="#FFFFFF" font-family="'FiraSans-Medium'" font-size="15px"> </text>
<text transform="matrix(1 0 0 1 619.9042 620.845)" fill="#FFFFFF" font-family="'FiraSans-Medium'" font-size="15px">D</text>
<text transform="matrix(1 0 0 1 629.6244 620.845)" fill="#FFFFFF" font-family="'FiraSans-Medium'" font-size="15px">é</text>
<text transform="matrix(1 0 0 1 637.7694 620.845)" fill="#FFFFFF" font-family="'FiraSans-Medium'" font-size="15px">v</text>
<text transform="matrix(1 0 0 1 645.2391 620.845)" fill="#FFFFFF" font-family="'FiraSans-Medium'" font-size="15px">e</text>
<text transform="matrix(1 0 0 1 653.474 620.845)" fill="#FFFFFF" font-family="'FiraSans-Medium'" font-size="15px">l</text>
<text transform="matrix(1 0 0 1 657.8241 620.845)" fill="#FFFFFF" font-family="'FiraSans-Medium'" font-size="15px">o</text>
<text transform="matrix(1 0 0 1 666.5844 620.845)" fill="#FFFFFF" font-family="'FiraSans-Medium'" font-size="15px">p</text>
<text transform="matrix(1 0 0 1 675.5243 620.845)" fill="#FFFFFF" font-family="'FiraSans-Medium'" font-size="15px">p</text>
<text transform="matrix(1 0 0 1 684.4642 620.845)" fill="#FFFFFF" font-family="'FiraSans-Medium'" font-size="15px">e</text>
<text transform="matrix(1 0 0 1 692.6991 620.845)" fill="#FFFFFF" font-family="'FiraSans-Medium'" font-size="15px">m</text>
<text transform="matrix(1 0 0 1 705.4491 620.845)" fill="#FFFFFF" font-family="'FiraSans-Medium'" font-size="15px">e</text>
<text transform="matrix(1 0 0 1 713.684 620.845)" fill="#FFFFFF" font-family="'FiraSans-Medium'" font-size="15px">n</text>
<text transform="matrix(1 0 0 1 722.3988 620.845)" fill="#FFFFFF" font-family="'FiraSans-Medium'" font-size="15px">t</text>
</svg>
