<svg xmlns="http://www.w3.org/2000/svg" width="1520" height="749.845" viewBox="0 0 1520 749.845"><g><g opacity=".5" fill="#fff" stroke="#ca4b38" stroke-width="9"><g transform="translate(-200 -2216.155) translate(200 2638)" opacity=".28"><circle cx="10" cy="10" r="10" stroke="none"/><circle cx="10" cy="10" r="5.5" fill="none"/></g><g transform="translate(-200 -2216.155) translate(691 2695)" opacity=".28"><circle cx="30" cy="30" r="30" stroke="none"/><circle cx="30" cy="30" r="25.5" fill="none"/></g><g transform="translate(-200 -2216.155) translate(915 2476)" opacity=".28"><ellipse cx="34.5" cy="34" rx="34.5" ry="34" stroke="none"/><ellipse cx="34.5" cy="34" rx="30" ry="29.5" fill="none"/></g><g transform="translate(-200 -2216.155) translate(1212 2582)" opacity=".28"><circle cx="42" cy="42" r="42" stroke="none"/><circle cx="42" cy="42" r="37.5" fill="none"/></g><g transform="translate(-200 -2216.155) translate(367 2575)" opacity=".28"><ellipse cx="18" cy="17.5" rx="18" ry="17.5" stroke="none"/><ellipse cx="18" cy="17.5" rx="13.5" ry="13" fill="none"/></g><g transform="translate(-200 -2216.155) translate(1267 2259)" opacity=".28"><ellipse cx="53" cy="52.5" rx="53" ry="52.5" stroke="none"/><ellipse cx="53" cy="52.5" rx="48.5" ry="48" fill="none"/></g><g transform="translate(-200 -2216.155) translate(1581 2294)" opacity=".28"><circle cx="69.5" cy="69.5" r="69.5" stroke="none"/><circle cx="69.5" cy="69.5" r="65" fill="none"/></g></g><g><path d="M150 456.468c407.481 0 1042.225-148.944 1220-448.591" stroke="#ca4b38" stroke-linecap="round" stroke-width="10" stroke-dasharray="0 30" fill="none"/><g><g transform="translate(191 379.845)" fill="#fff" stroke="#00a5a5" stroke-width="7"><circle cx="74" cy="74" r="74" stroke="none"/><circle cx="74" cy="74" r="70.5" fill="none"/></g><text transform="translate(263 445.845)" fill="#ca4b38" font-size="26" font-family="FiraSans-Bold, Fira Sans" font-weight="700"><tspan x="-17.217" y="0">1</tspan><tspan y="0" font-size="15.166" baseline-shift="8.666">ère</tspan><tspan x="-36.478" y="31">année</tspan></text></g><g><g transform="translate(549 332.845)" fill="#fff" stroke="#00a5a5" stroke-width="7"><circle cx="74" cy="74" r="74" stroke="none"/><circle cx="74" cy="74" r="70.5" fill="none"/></g><text transform="translate(622 398.845)" fill="#ca4b38" font-size="26" font-family="FiraSans-Bold, Fira Sans" font-weight="700"><tspan x="-21.5" y="0">2</tspan><tspan y="0" font-size="15.166" baseline-shift="8.666">ème</tspan><tspan x="-36.478" y="31">année</tspan></text></g><g><g transform="translate(875 237.845)" fill="#fff" stroke="#00a5a5" stroke-width="7"><circle cx="74" cy="74" r="74" stroke="none"/><circle cx="74" cy="74" r="70.5" fill="none"/></g><text transform="translate(948 303.845)" fill="#ca4b38" font-size="26" font-family="FiraSans-Bold, Fira Sans" font-weight="700"><tspan x="-21.539" y="0">3</tspan><tspan y="0" font-size="15.166" baseline-shift="8.666">ème</tspan><tspan x="-36.478" y="31">année</tspan></text></g><path d="M1370.807 10.807l-3.177 37.343-30.839-21.614z" fill="#ca4b38"/><g><g transform="translate(1185 71.845)" fill="#fff" stroke="#00a5a5" stroke-width="7"><circle cx="74" cy="74" r="74" stroke="none"/><circle cx="74" cy="74" r="70.5" fill="none"/></g><text transform="translate(1259 139.845)" fill="#ca4b38" font-size="24" font-family="FiraSans-Bold, Fira Sans" font-weight="700"><tspan x="-32.322" y="0">4</tspan><tspan y="0" font-size="15" font-family="FiraSans-Regular, Fira Sans" font-weight="400">&amp;</tspan><tspan y="0">5</tspan><tspan y="0" font-size="13.999" baseline-shift="7.999">ème</tspan><tspan x="-39.468" y="28">années</tspan></text></g></g><g><g><text transform="translate(-200 -2216.155) translate(351 2844)" fill="#717171" font-size="15" font-family="FiraSans-Regular, Fira Sans"><tspan x=".358" y="14">Suivez cette première année pour</tspan><tspan x="28.183" y="32">vous former au métier de</tspan><tspan x="15.92" y="50">concepteur numérique. Cette</tspan><tspan x="4.64" y="68">année est la clé pour poursuivre</tspan><tspan x="5.668" y="86">le cursus et obtenir un Bachelor</tspan><tspan x="41.682" y="104">chef de projet digital.</tspan></text><g><path d="M129.733 552.845h273.267v52h-273.267z" fill="#00a5a5"/><text transform="translate(-200 -2216.155) translate(467 2801)" fill="#fff" font-size="15" font-family="FiraSans-Medium, Fira Sans" font-weight="500"><tspan x="-129.855" y="0">Cursus initial : Concepteur numérique</tspan></text></g></g><g><path fill="#00a5a5" d="M834 420.845h230v52h-230z"/><text transform="translate(-200 -2216.155) translate(1035 2703)" fill="#717171" font-size="15" font-family="FiraSans-Regular, Fira Sans"><tspan x="10.835" y="14">Obtenez le mental et l&apos;attitude</tspan><tspan x="15.643" y="32">d&apos;un chef de projet et validez</tspan><tspan x="63.665" y="50">votre Bachelor.</tspan></text><text transform="translate(-200 -2216.155) translate(1149 2667)" fill="#fff" font-size="15" font-family="FiraSans-Medium, Fira Sans" font-weight="500"><tspan x="-107.46" y="0">Bachelor : Chef de Projet digital</tspan></text></g><g><path fill="#00a5a5" d="M1140 259.845h230v52h-230z"/><text transform="translate(-200 -2216.155) translate(1341 2540)" fill="#717171" font-size="15" font-family="FiraSans-Regular, Fira Sans"><tspan x="15.605" y="14">Spécialisez vous encore plus</tspan><tspan x="22.04" y="32">dans le numérique pour en</tspan><tspan x="17.803" y="50">devenir un expert et devenir</tspan><tspan x="68.398" y="68">entrepreneur.</tspan></text><text transform="translate(-200 -2216.155) translate(1455 2507)" fill="#fff" font-size="15" font-family="FiraSans-Medium, Fira Sans" font-weight="500"><tspan x="-100.597" y="0">Master : Expert du numérique</tspan></text></g><g><text transform="translate(-200 -2216.155) translate(709 2873)" fill="#717171" font-size="15" font-family="FiraSans-Regular, Fira Sans"><tspan x="27.942" y="14">Choisissez un de ces trois</tspan><tspan x="15.485" y="32">domaines et spécialisez vous</tspan><tspan x="19.04" y="50">pour suivre votre univers de</tspan><tspan x="71.457" y="68">prédilection.</tspan></text><g><path d="M508 514.845h230v36h-230z" fill="#ca4b38"/><text transform="translate(-200 -2216.155) translate(824 2753)" fill="#fff" font-size="15" font-family="FiraSans-Medium, Fira Sans" font-weight="500"><tspan x="-100.897" y="0">Spécialisation Web Marketing</tspan></text></g><g><path fill="#00a5a5" d="M508 556.845h230v36h-230z"/><text transform="translate(-200 -2216.155) translate(824 2795)" fill="#fff" font-size="15" font-family="FiraSans-Medium, Fira Sans" font-weight="500"><tspan x="-73.012" y="0">Spécialisation Design</tspan></text></g><g><path fill="#fec800" d="M508 598.845h230v36h-230z"/><text transform="translate(-200 -2216.155) translate(824 2837)" fill="#fff" font-size="15" font-family="FiraSans-Medium, Fira Sans" font-weight="500"><tspan x="-104.025" y="0">Spécialisation Développement</tspan></text></g></g></g></g></svg>