<svg xmlns="http://www.w3.org/2000/svg" width="98" height="98" viewBox="0 0 98 98">
  <defs>
    <style>
      .cls-1, .cls-4 {
        fill: #fff;
      }

      .cls-2 {
        fill: #ca4b38;
      }

      .cls-3, .cls-6 {
        fill: #00a5a5;
      }

      .cls-4 {
        font-size: 11px;
        font-family: FiraSans-Regular, Fira Sans;
      }

      .cls-5, .cls-6 {
        stroke: none;
      }
    </style>
  </defs>
  <g id="_1" data-name="1" transform="translate(-158 -3345)">
    <g id="Path_59" data-name="Path 59" class="cls-1" transform="translate(158 3345)">
      <path class="cls-5" d="M 49 96 C 42.65415573120117 96 36.49919891357422 94.75759887695312 30.70610046386719 92.30732727050781 C 25.1096134185791 89.94021606445312 20.08302879333496 86.55105590820312 15.7659854888916 82.23401641845703 C 11.44894313812256 77.91696929931641 8.059785842895508 72.89040374755859 5.692671298980713 67.29391479492188 C 3.242399930953979 61.50080108642578 2 55.34584426879883 2 49 C 2 42.65415573120117 3.242399930953979 36.49919891357422 5.692671298980713 30.70610046386719 C 8.059785842895508 25.1096134185791 11.44894313812256 20.08302879333496 15.7659854888916 15.7659854888916 C 20.08302879333496 11.44894313812256 25.1096134185791 8.059785842895508 30.70610046386719 5.692671298980713 C 36.49919891357422 3.242399930953979 42.65415573120117 2 49 2 C 55.34584426879883 2 61.50080108642578 3.242399930953979 67.29391479492188 5.692671298980713 C 72.89040374755859 8.059785842895508 77.91696929931641 11.44894313812256 82.23401641845703 15.7659854888916 C 86.55105590820312 20.08302879333496 89.94021606445312 25.1096134185791 92.30732727050781 30.70610046386719 C 94.75759887695312 36.49919891357422 96 42.65415573120117 96 49 C 96 55.34584426879883 94.75759887695312 61.50080108642578 92.30732727050781 67.29391479492188 C 89.94021606445312 72.89040374755859 86.55105590820312 77.91696929931641 82.23401641845703 82.23401641845703 C 77.91696929931641 86.55105590820312 72.89040374755859 89.94021606445312 67.29391479492188 92.30732727050781 C 61.50080108642578 94.75759887695312 55.34584426879883 96 49 96 Z"/>
      <path class="cls-6" d="M 49 4 C 42.92328262329102 4 37.03044891357422 5.189231872558594 31.48519897460938 7.534683227539062 C 26.12709808349609 9.80096435546875 21.31421661376953 13.04618072509766 17.18019866943359 17.18019866943359 C 13.04618072509766 21.31421661376953 9.80096435546875 26.12709808349609 7.534683227539062 31.48519897460938 C 5.189231872558594 37.03044891357422 4 42.92328262329102 4 49 C 4 55.07671737670898 5.189231872558594 60.96955108642578 7.534683227539062 66.51480102539062 C 9.80096435546875 71.87290191650391 13.04618072509766 76.68578338623047 17.18019866943359 80.81980133056641 C 21.31421661376953 84.95381927490234 26.12709808349609 88.19903564453125 31.48519897460938 90.46531677246094 C 37.03044891357422 92.81076812744141 42.92328262329102 94 49 94 C 55.07671737670898 94 60.96955108642578 92.81076812744141 66.51480102539062 90.46531677246094 C 71.87290191650391 88.19903564453125 76.68578338623047 84.95381927490234 80.81980133056641 80.81980133056641 C 84.95381927490234 76.68578338623047 88.19903564453125 71.87290191650391 90.46531677246094 66.51480102539062 C 92.81076812744141 60.96955108642578 94 55.07671737670898 94 49 C 94 42.92328262329102 92.81076812744141 37.03044891357422 90.46531677246094 31.48519897460938 C 88.19903564453125 26.12709808349609 84.95381927490234 21.31421661376953 80.81980133056641 17.18019866943359 C 76.68578338623047 13.04618072509766 71.87290191650391 9.80096435546875 66.51480102539062 7.534683227539062 C 60.96955108642578 5.189231872558594 55.07671737670898 4 49 4 M 49 0 C 76.06195068359375 0 98 21.93804931640625 98 49 C 98 76.06195068359375 76.06195068359375 98 49 98 C 21.93804931640625 98 0 76.06195068359375 0 49 C 0 21.93804931640625 21.93804931640625 0 49 0 Z"/>
    </g>
    <g id="noun_achievement_3388484" transform="translate(175.511 3362.511)">
      <path id="Path_30" data-name="Path 30" class="cls-2" d="M24.129,17.067,20.859,7,17.588,17.067,7,17.588l8.565,4.557L12.294,34.718l8.565-7.955,8.565,7.955L26.153,22.145l8.565-4.557Z" transform="translate(10.631 10.631)"/>
      <path id="Path_31" data-name="Path 31" class="cls-2" d="M16.544,9.315V3.772a2.772,2.772,0,1,0-5.544,0V9.315a2.772,2.772,0,1,0,5.544,0Z" transform="translate(17.718)"/>
      <path id="Path_32" data-name="Path 32" class="cls-2" d="M11,21.772v5.544a2.772,2.772,0,1,0,5.544,0V21.772a2.772,2.772,0,1,0-5.544,0Z" transform="translate(17.718 31.892)"/>
      <path id="Path_33" data-name="Path 33" class="cls-2" d="M25.308,4.741a2.772,2.772,0,0,0-3.919,0L17.469,8.66a2.772,2.772,0,1,0,3.92,3.92l3.919-3.92A2.772,2.772,0,0,0,25.308,4.741Z" transform="translate(27.74 5.19)"/>
      <path id="Path_34" data-name="Path 34" class="cls-2" d="M4.741,25.308a2.772,2.772,0,0,0,3.919,0l3.919-3.919a2.772,2.772,0,1,0-3.92-3.92l-3.919,3.92a2.772,2.772,0,0,0,0,3.919Z" transform="translate(5.19 27.74)"/>
      <path id="Path_35" data-name="Path 35" class="cls-2" d="M27.315,11H21.772a2.772,2.772,0,1,0,0,5.544h5.544a2.772,2.772,0,1,0,0-5.544Z" transform="translate(31.892 17.718)"/>
      <path id="Path_36" data-name="Path 36" class="cls-2" d="M3.772,16.544H9.315a2.772,2.772,0,1,0,0-5.544H3.772a2.772,2.772,0,1,0,0,5.544Z" transform="translate(0 17.718)"/>
      <path id="Path_37" data-name="Path 37" class="cls-2" d="M21.388,25.308a2.772,2.772,0,1,0,3.92-3.92l-3.92-3.919a2.772,2.772,0,1,0-3.92,3.92Z" transform="translate(27.74 27.74)"/>
      <path id="Path_38" data-name="Path 38" class="cls-2" d="M12.58,12.58a2.772,2.772,0,0,0,0-3.919L8.66,4.741a2.772,2.772,0,1,0-3.92,3.92L8.66,12.58A2.772,2.772,0,0,0,12.58,12.58Z" transform="translate(5.189 5.189)"/>
    </g>
    <g id="Group_38" data-name="Group 38" transform="translate(31 39)">
      <circle id="Ellipse_213" data-name="Ellipse 213" class="cls-3" cx="10" cy="10" r="10" transform="translate(197 3380)"/>
      <text id="_1-2" data-name="1" class="cls-4" transform="translate(207 3394)"><tspan x="-2.382" y="0">1</tspan></text>
    </g>
  </g>
</svg>
