<svg xmlns="http://www.w3.org/2000/svg" width="98" height="98" viewBox="0 0 98 98">
  <defs>
    <style>
      .cls-1, .cls-6 {
        fill: none;
      }

      .cls-1 {
        stroke: #00a5a5;
        stroke-width: 4px;
      }

      .cls-2 {
        fill: #ca4b38;
      }

      .cls-3 {
        fill: #00a5a5;
      }

      .cls-4 {
        fill: #fff;
        font-size: 11px;
        font-family: FiraSans-Regular, Fira Sans;
      }

      .cls-5 {
        stroke: none;
      }
    </style>
  </defs>
  <g id="_4" data-name="4" transform="translate(-158 -3945)">
    <g id="Group_27" data-name="Group 27" transform="translate(0 600)">
      <g id="Ellipse_209" data-name="Ellipse 209" class="cls-1" transform="translate(158 3345)">
        <circle class="cls-5" cx="49" cy="49" r="49"/>
        <circle class="cls-6" cx="49" cy="49" r="47"/>
      </g>
      <g id="noun_working_2228782" transform="translate(179.404 3364.604)">
        <path id="Path_51" data-name="Path 51" class="cls-2" d="M43.258,27.159H9.821A2.108,2.108,0,0,0,7.676,29.87l3.245,13.735a3.7,3.7,0,0,0,3.427,2.71H38.73a3.7,3.7,0,0,0,3.427-2.71L45.4,29.87A2.108,2.108,0,0,0,43.258,27.159ZM26.539,39.522c-2.693,0-4.876-1.247-4.876-2.784s2.183-2.787,4.876-2.787,4.876,1.247,4.876,2.787S29.232,39.522,26.539,39.522Z" transform="translate(0.557 3.217)"/>
        <path id="Path_52" data-name="Path 52" class="cls-2" d="M39.336,45.6H12.865a1.625,1.625,0,1,0,0,3.25H39.336a1.625,1.625,0,1,0,0-3.25Z" transform="translate(0.996 5.443)"/>
        <path id="Path_53" data-name="Path 53" class="cls-2" d="M19.645,24.689a12.46,12.46,0,0,1-3.864,3.647H35.629a12.461,12.461,0,0,1-3.864-3.647A13.812,13.812,0,0,0,36.891,13.65C36.89,6.395,31.883.511,25.7.5,19.526.511,14.519,6.395,14.519,13.65A13.812,13.812,0,0,0,19.645,24.689Z" transform="translate(1.391)"/>
        <path id="Path_54" data-name="Path 54" class="cls-2" d="M10.195,48.96a3.651,3.651,0,0,1,1.049-2.56,5.5,5.5,0,0,1-1.752-2.817L6.572,31.224c-1.688,2.241-3.015,5.388-3.493,10.011,0,0-1.294,9.351,6.076,9.351h1.438A3.619,3.619,0,0,1,10.195,48.96Z" transform="translate(0 3.708)"/>
        <path id="Path_55" data-name="Path 55" class="cls-2" d="M46.811,41.234c-.479-4.625-1.807-7.771-3.494-10.012L40.4,43.582A5.5,5.5,0,0,1,38.645,46.4a3.6,3.6,0,0,1,.652,4.185h1.438C48.106,50.585,46.811,41.234,46.811,41.234Z" transform="translate(4.303 3.708)"/>
      </g>
    </g>
    <g id="Group_41" data-name="Group 41" transform="translate(31 641)">
      <circle id="Ellipse_213" data-name="Ellipse 213" class="cls-3" cx="10" cy="10" r="10" transform="translate(197 3380)"/>
      <text id="_4-2" data-name="4" class="cls-4" transform="translate(207 3394)"><tspan x="-2.926" y="0">4</tspan></text>
    </g>
  </g>
</svg>
