<svg xmlns="http://www.w3.org/2000/svg" width="98" height="98" viewBox="0 0 98 98">
  <defs>
    <style>
      .cls-1, .cls-6 {
        fill: none;
      }

      .cls-1 {
        stroke: #00a5a5;
        stroke-width: 4px;
      }

      .cls-2 {
        fill: #ca4b38;
      }

      .cls-3 {
        fill: #00a5a5;
      }

      .cls-4 {
        fill: #fff;
        font-size: 11px;
        font-family: FiraSans-Regular, Fira Sans;
      }

      .cls-5 {
        stroke: none;
      }
    </style>
  </defs>
  <g id="_2" data-name="2" transform="translate(-158 -3521)">
    <g id="Group_37" data-name="Group 37">
      <g id="Group_27" data-name="Group 27" transform="translate(0 176)">
        <g id="Ellipse_209" data-name="Ellipse 209" class="cls-1" transform="translate(158 3345)">
          <circle class="cls-5" cx="49" cy="49" r="49"/>
          <circle class="cls-6" cx="49" cy="49" r="47"/>
        </g>
      </g>
      <g id="noun_Project_Startup_1451314" data-name="noun_Project Startup_1451314" transform="translate(177.252 3545.287)">
        <g id="Group_33" data-name="Group 33" transform="translate(1.5 1.8)">
          <g id="Group_30" data-name="Group 30">
            <g id="Group_29" data-name="Group 29">
              <path id="Path_44" data-name="Path 44" class="cls-2" d="M52.073,1.8H7.37A5.917,5.917,0,0,0,1.5,7.67V42.3a5.722,5.722,0,0,0,5.012,5.735c.632.045,8.67.09,16.662.135a7,7,0,0,1,1.806-2.935,2.5,2.5,0,0,1-.271-.361H9.041c-2.754,0-4.29-1.445-4.29-4.29V13.676H39.926c1.084,0,1.084,0,1.084-1.084V10.018c0-.632.181-.9.813-.9h9.031c.722,0,.9.271.813.9v2.935c0,.542.181.813.722.722H54.6V41.265a3.654,3.654,0,0,1-3.928,3.658H34.734c-.09.09-.135.226-.226.316a5.7,5.7,0,0,1,1.851,2.98h8.173c2.574,0,5.1.09,7.5,0a5.976,5.976,0,0,0,5.78-5.96c.09-12.6.09-21.855.09-34.453A5.965,5.965,0,0,0,52.073,1.8ZM7.641,10.65a2.342,2.342,0,0,1-2.3-2.3,2.374,2.374,0,0,1,2.3-2.3,2.44,2.44,0,0,1,2.3,2.3A2.373,2.373,0,0,1,7.641,10.65Zm7.225,0a2.233,2.233,0,0,1-2.213-2.393,2.327,2.327,0,0,1,2.213-2.3,2.23,2.23,0,0,1,2.3,2.3A2.362,2.362,0,0,1,14.866,10.65Zm7.134,0a2.342,2.342,0,0,1-2.3-2.3,2.374,2.374,0,0,1,2.3-2.3,2.44,2.44,0,0,1,2.3,2.3A2.341,2.341,0,0,1,22,10.65Z" transform="translate(-1.5 -1.8)"/>
            </g>
          </g>
          <g id="Group_32" data-name="Group 32" transform="translate(18.281 17.43)">
            <g id="Group_31" data-name="Group 31">
              <path id="Path_45" data-name="Path 45" class="cls-2" d="M61.544,59.771l-4.2-4.2a37.309,37.309,0,0,0,.361-4.606v-.045a10.567,10.567,0,0,0-2.664-7l-2.935-3.387c0-.045-.045-.045-.09-.09a.226.226,0,0,0-.271,0c-.045,0-.045.045-.09.09l-2.89,3.387a11.045,11.045,0,0,0-2.664,7v.045a37.309,37.309,0,0,0,.361,4.606l-4.2,4.2a.89.89,0,0,0,.632,1.535,37.618,37.618,0,0,0,4.967,1.129c.226.768.452,1.535.677,2.258a1.26,1.26,0,0,0,1.219.858h4.154a1.321,1.321,0,0,0,1.219-.858,16.485,16.485,0,0,0,.677-2.258,39.322,39.322,0,0,0,4.967-1.129A.926.926,0,0,0,61.544,59.771Z" transform="translate(-41.985 -40.4)"/>
              <path id="Path_46" data-name="Path 46" class="cls-2" d="M62.886,104.738a.768.768,0,0,0-.045.316c-.316,1.716-1.309,3.3-1.761,4.967a3.19,3.19,0,0,1-.632-1.9c0-.271.045-.632-.181-.813-1.084-1.039-2.393,3.341-2.077,4.154,0,.045,0,.045.045.045a3.2,3.2,0,0,1-1.445-3.432,7.035,7.035,0,0,0-.045-1.942v-.045a.271.271,0,0,0-.045-.181c0-.045-.045-.045-.045-.09H56.7c-.045-.135-.045-.271-.09-.361l-.045-.045c-.045-.09-.09-.135-.135-.226l-.045-.045a.044.044,0,0,0-.045-.045.623.623,0,0,0-.135-.181l-.045-.045c-.542-.181-.271.993-.226,1.264.045.361.09.722.135,1.129a2.552,2.552,0,0,1,0,.587c-.045.632-.632,1.49-.632,1.309a7.852,7.852,0,0,0-1.084-2.619,6.591,6.591,0,0,1-.768-3.206,4.733,4.733,0,0,1,1.716-3.251,4.249,4.249,0,0,1,.993-.542.044.044,0,0,0,.045-.045h.045c-.361.316-.316,1.084-.316,1.49a4.257,4.257,0,0,0,.768,2.3,9.755,9.755,0,0,0,1.219,1.129,2.086,2.086,0,0,1,.316.316l.045.045a3.08,3.08,0,0,1,.722,1.309c.045.181.5-.858.406-1.58A8.331,8.331,0,0,0,59,102.706c-.09-.226-.632-1.49-.045-1.4.09.045.226.09.271.181a1.657,1.657,0,0,1,.452.768.389.389,0,0,0,.632.135c.045-.045.09-.09.09-.135a2.327,2.327,0,0,0,.406-.9,2.578,2.578,0,0,0,0-1.174,2.545,2.545,0,0,0-.181-.542c.09.045.226.09.316.135s.135.09.226.135A4.571,4.571,0,0,1,62.886,104.738Z" transform="translate(-48.34 -72.814)"/>
            </g>
          </g>
        </g>
      </g>
    </g>
    <g id="Group_39" data-name="Group 39" transform="translate(31 215)">
      <circle id="Ellipse_213" data-name="Ellipse 213" class="cls-3" cx="10" cy="10" r="10" transform="translate(197 3380)"/>
      <text id="_2-2" data-name="2" class="cls-4" transform="translate(207 3394)"><tspan x="-2.723" y="0">2</tspan></text>
    </g>
  </g>
</svg>
